<svg width="1441" height="975" viewBox="0 0 1441 975" xmlns="http://www.w3.org/2000/svg"><title>Group 4</title><g fill="#93649C" fill-rule="evenodd" fill-opacity=".1"><path d="M1392.57 338.688c-18.718 18.162-36.436 35.296-50.106 34.51l-.02.33c-4.165-3.565-9.6-7.196-19.57-7.1l.09 5.183c9.41-.136 13.556 3.532 17.918 7.444 2.573 2.313 5.233 4.65 8.844 5.95-19.123 13.11-54.213 28.305-86.322 23.876-17.735-2.446-31.83-10.67-41.887-24.436l-.344.253c-5.67-9.615-13.116-17.768-22.2-24.22 6.24-5.987 11.56-12.705 15.832-19.967 13.623 9.245 26.012 12.92 37.462 12.92 23.53-.004 43.063-15.476 61.008-29.694 14.9-11.804 28.975-22.954 43.01-22.954h2.59v-6.02h-2.59c-13.995 0-28.05-10.88-42.923-22.4-26.766-20.733-57.05-44.145-98.72-15.824-4.473-7.543-10.1-14.47-16.68-20.615 9.76-6.718 17.617-15.022 23.52-24.847l.035.02c10.058-13.767 24.152-21.99 41.887-24.436 32.1-4.442 67.18 10.756 86.302 23.862-3.61 1.302-6.244 3.654-8.824 5.97-4.356 3.905-8.457 7.573-17.92 7.443l-.09 5.183c.22 0 .435.003.652.003 9.508 0 14.835-3.6 18.923-7.104l.017.327c13.716-.78 31.388 16.347 50.107 34.51 17.536 17.006 35.54 34.47 53.53 40.918-17.99 6.446-35.994 23.914-53.53 40.918zm-182.79 170.417c-1.313-3.54-3.632-6.164-5.918-8.71-3.912-4.362-7.603-8.474-7.443-17.922l-5.18-.087c-.17 9.915 3.514 15.392 7.095 19.57l-.33.02c.814 13.697-16.34 31.385-34.506 50.108-17 17.532-34.473 35.54-40.917 53.525-6.445-17.986-23.91-35.994-40.917-53.526-18.162-18.723-35.32-36.41-34.508-50.107l-.334-.02c3.58-4.18 7.27-9.656 7.1-19.57l-5.18.086c.163 9.445-3.535 13.56-7.447 17.918-2.3 2.568-4.63 5.208-5.937 8.792-12.238-18.33-25.942-52.677-20.688-86.298 3.63-23.27 15.63-42.175 35.623-56.25 7.77 6.18 16.613 11.345 26.238 15.293-25.768 40.122-1.985 67.642 19.1 92.025 12.312 14.238 23.936 27.68 23.936 41.845v2.593h6.023v-2.593c0-14.164 11.628-27.607 23.94-41.84 21.258-24.584 45.254-52.355 18.462-93.01 10.025-4.373 19.143-10.09 27.04-16.902 17.597 12.072 28.52 30.117 32.432 53.716 5.463 32.97-4.325 70.543-17.688 91.345zm-185.3-124.66c-10.055 13.765-24.153 21.99-41.89 24.438-32.113 4.44-67.193-10.766-86.313-23.88 3.612-1.3 6.27-3.64 8.848-5.95 4.36-3.91 8.55-7.595 17.918-7.442l.087-5.182c-9.942-.157-15.395 3.52-19.564 7.096l-.02-.327c-13.676.777-31.388-16.347-50.114-34.506-17.535-17.006-35.537-34.47-53.532-40.92 17.995-6.446 35.997-23.91 53.532-40.918 18.73-18.162 36.504-35.28 50.114-34.51l.017-.326c4.085 3.504 9.408 7.105 18.92 7.105l.647-.002-.087-5.183c-9.438.127-13.56-3.534-17.918-7.442-2.583-2.317-5.216-4.67-8.83-5.97 19.12-13.104 54.188-28.295 86.294-23.867 16.763 2.316 30.223 9.85 40.145 22.277 5.877 9.756 13.706 18.183 23.452 25.224-6.976 6.175-12.97 13.2-17.732 20.89-41.487-28.175-70.626-4.42-96.377 16.616-14.545 11.878-28.278 23.098-42.358 23.098h-2.59v6.022h2.59c14.08 0 27.813 11.223 42.36 23.098 17.32 14.147 36.162 29.54 59.26 29.54 11.047 0 23.078-3.535 36.374-12.396 4.89 8.18 11.13 15.65 18.486 22.164-8.65 6.254-15.856 13.38-21.566 21.366l-.154-.11zm96.628-177.72c-13.644 0-26.676 2.302-38.654 6.444-26.098-38.175-4.165-63.585 17.097-88.17 9.673-11.186 18.945-21.912 23.026-33.323 4.058 11.414 13.26 22.177 22.86 33.4 21.257 24.83 43.184 50.516 16.702 88.92-12.616-4.683-26.48-7.273-41.03-7.273zm-95.93 129.744c-38.1 25.613-64.39 4.174-89.823-16.605-11.327-9.248-22.19-18.122-33.544-22.094 11.355-3.967 22.218-12.84 33.545-22.095 25.585-20.896 52.037-42.46 90.5-16.13-6.42 11.88-10.032 25.134-10.032 39.118 0 13.473 3.364 26.265 9.355 37.806zm95.93 54.13c14.92 0 29.112-2.74 41.98-7.645 25.512 37.86 3.682 63.147-17.477 87.607-9.67 11.19-18.95 21.916-23.027 33.327-4.082-11.412-13.353-22.138-23.032-33.328-20.994-24.277-42.674-49.36-18.074-86.746 12.242 4.362 25.618 6.785 39.632 6.785zm96.05-129.51c38.784-26.616 66.357-5.3 93.033 15.362 11.515 8.92 22.555 17.47 33.892 21.34-11.387 3.954-22.47 12.732-34.02 21.886-26.58 21.056-54.06 42.782-92.744 16.25 5.814-11.4 9.07-24.003 9.07-37.265 0-13.38-3.32-26.096-9.23-37.573zm4.048 37.573c0 47.838-44.9 86.758-100.098 86.758-14.638 0-28.542-2.762-41.094-7.678l-.433-.317c-.026.04-.053.077-.076.114-34.48-13.718-58.498-43.902-58.498-78.877 0-47.835 44.905-86.756 100.102-86.756s100.098 38.92 100.098 86.756zM1035.34 86.378c1.305 3.587 3.658 6.214 5.957 8.78l1.038 1.162c3.46 3.928 6.555 8.17 6.408 16.767l5.18.087c.167-9.846-3.43-15.282-7.046-19.504-.136-13.61 16.74-31.178 34.64-49.767 17.07-17.732 34.605-35.937 41.066-54.003 6.444 17.992 23.916 36 40.92 53.542 18.162 18.733 35.316 36.428 34.502 50.13l.33.02c-3.58 4.183-7.266 9.66-7.095 19.582l5.18-.087c-.16-9.452 3.53-13.567 7.442-17.93 2.293-2.552 4.632-5.162 5.94-8.713 12.075 18.953 24.236 56.13 18.13 91.712-4.07 23.71-15.513 41.93-33.986 54.216-7.893-6.615-16.944-12.178-26.88-16.41 27.715-41.15 3.635-69.33-17.69-94.255-12.232-14.297-23.783-27.804-23.783-41.96v-2.59h-6.024v2.59c0 14.17-11.625 27.623-23.937 41.863-21.332 24.664-45.412 52.54-18.178 93.424-9.986 3.992-19.154 9.285-27.177 15.67-8.967-6.288-16.273-13.79-21.87-22.475l.257-.19c-.5-.69-1.058-1.293-1.582-1.96-5.46-9.11-9.14-19.44-10.966-30.958-5.09-32.152 5.64-68.106 19.223-88.744zm360.842 166.756c-17.374-16.854-33.908-32.847-48.565-35.56 2.376-1.802 4.882-3.004 8.603-2.887l.064-2.593 1.602-2.04c-18.16-14.247-58.488-33.6-95.193-28.527-13.336 1.842-24.73 6.788-34.135 14.61 1.936-5.366 3.445-11.063 4.483-17.103 6.338-36.925-6.587-80.295-22.74-100.886l-4.836-6.165.207 7.83c.097 3.714-1.094 6.224-2.893 8.6-2.71-14.677-18.703-31.198-35.553-48.582-20.675-21.318-42.05-43.355-42.05-63.83h-5.18c0 20.478-21.457 42.755-42.21 64.308-16.532 17.168-32.248 33.51-35.5 47.975-1.738-2.34-2.886-4.822-2.79-8.47l.215-7.83-4.84 6.165c-15.87 20.23-29.633 61.38-23.87 97.782 1.062 6.715 2.73 13.04 4.96 18.993-9.115-7.125-20.02-11.654-32.66-13.396-36.715-5.073-77.03 14.284-95.176 28.528l1.596 2.04.07 2.592c3.694-.127 6.207 1.078 8.593 2.887-14.647 2.71-31.188 18.71-48.56 35.56-21.31 20.672-43.348 42.048-63.823 42.048v5.18c20.475 0 42.512 21.38 63.824 42.047 17.385 16.86 33.902 32.846 48.58 35.546-2.393 1.812-4.903 3.023-8.61 2.9l-.074 2.59-1.596 2.04c16.13 12.658 49.774 29.355 82.828 29.355 4.135 0 8.27-.263 12.348-.827 12.408-1.712 23.152-6.09 32.163-12.986-2.76 6.59-4.75 13.61-5.908 21.056-5.64 36.13 9.168 74.737 25.314 95.312l2.035-1.598 2.59-.067c-.097-3.715 1.09-6.22 2.89-8.597 2.717 14.668 18.71 31.18 35.56 48.56 20.672 21.308 42.048 43.348 42.048 63.817h5.18c0-20.47 21.376-42.51 42.047-63.818 16.854-17.375 32.847-33.888 35.557-48.56 1.8 2.377 2.99 4.887 2.894 8.598l2.59.067 2.04 1.598c15.8-20.134 28.45-63.23 22.28-100.482-1.058-6.37-2.637-12.405-4.716-18.082 9.532 8.168 21.166 13.297 34.83 15.183 4.088.564 8.213.828 12.35.828 33.058 0 66.71-16.696 82.842-29.355l-1.602-2.04-.067-2.59c-3.68.128-6.21-1.084-8.61-2.9 14.677-2.706 31.194-18.69 48.575-35.546 21.31-20.673 43.346-42.05 63.818-42.05v-5.178c-20.472 0-42.508-21.376-63.818-42.048zm-275.074 96.547c-32.547 0-59.022-22.887-59.022-51.017 0-28.13 26.475-51.016 59.022-51.016 32.546 0 59.025 22.885 59.025 51.016 0 28.13-26.48 51.018-59.025 51.018zm0-107.216c-35.4 0-64.205 25.21-64.205 56.2 0 30.986 28.805 56.2 64.205 56.2 35.403 0 64.208-25.214 64.208-56.2 0-30.99-28.805-56.2-64.208-56.2zM605.57 693.688c-18.718 18.162-36.436 35.296-50.106 34.51l-.02.33c-4.165-3.565-9.6-7.196-19.57-7.1l.09 5.183c9.41-.136 13.556 3.532 17.918 7.444 2.573 2.313 5.233 4.65 8.844 5.95-19.123 13.11-54.213 28.305-86.322 23.876-17.735-2.446-31.83-10.67-41.887-24.436l-.344.253c-5.67-9.615-13.116-17.768-22.2-24.22 6.24-5.987 11.56-12.705 15.832-19.967 13.623 9.245 26.012 12.92 37.462 12.92 23.53-.004 43.063-15.476 61.008-29.694 14.9-11.804 28.975-22.954 43.01-22.954h2.59v-6.02h-2.59c-13.995 0-28.05-10.88-42.923-22.4-26.766-20.733-57.05-44.145-98.72-15.824-4.473-7.543-10.1-14.47-16.68-20.615 9.76-6.718 17.617-15.022 23.52-24.847l.035.02c10.058-13.767 24.152-21.99 41.887-24.436 32.1-4.442 67.18 10.756 86.302 23.862-3.61 1.302-6.244 3.654-8.824 5.97-4.356 3.905-8.457 7.573-17.92 7.443l-.09 5.183c.22 0 .435.003.652.003 9.508 0 14.835-3.6 18.923-7.104l.017.327c13.716-.78 31.388 16.347 50.107 34.51 17.536 17.006 35.54 34.47 53.53 40.918-17.99 6.446-35.994 23.914-53.53 40.918zM422.78 864.105c-1.313-3.54-3.632-6.164-5.918-8.71-3.912-4.362-7.603-8.474-7.443-17.922l-5.18-.087c-.17 9.915 3.514 15.392 7.095 19.57l-.33.02c.814 13.697-16.34 31.385-34.506 50.108-17 17.532-34.473 35.54-40.917 53.525-6.445-17.986-23.91-35.994-40.917-53.526-18.162-18.723-35.32-36.41-34.508-50.107l-.334-.02c3.58-4.18 7.27-9.656 7.1-19.57l-5.18.086c.163 9.445-3.535 13.56-7.447 17.918-2.3 2.568-4.63 5.208-5.937 8.792-12.238-18.33-25.942-52.677-20.688-86.298 3.63-23.27 15.63-42.175 35.623-56.25 7.77 6.18 16.613 11.345 26.238 15.293-25.768 40.122-1.985 67.642 19.1 92.025 12.312 14.238 23.936 27.68 23.936 41.845v2.593h6.023v-2.593c0-14.164 11.628-27.607 23.94-41.84 21.258-24.584 45.254-52.355 18.462-93.01 10.025-4.373 19.143-10.09 27.04-16.902 17.597 12.072 28.52 30.117 32.432 53.716 5.463 32.97-4.325 70.543-17.688 91.345zm-185.3-124.66c-10.055 13.765-24.153 21.99-41.89 24.438-32.113 4.44-67.193-10.766-86.313-23.88 3.612-1.3 6.27-3.64 8.848-5.95 4.36-3.91 8.55-7.595 17.918-7.442l.087-5.182c-9.942-.157-15.395 3.52-19.564 7.096l-.02-.327c-13.676.777-31.388-16.347-50.114-34.506-17.535-17.006-35.537-34.47-53.532-40.92 17.995-6.446 35.997-23.91 53.532-40.918 18.73-18.162 36.504-35.28 50.114-34.51l.017-.326c4.085 3.504 9.408 7.105 18.92 7.105l.647-.002-.087-5.183c-9.438.127-13.56-3.534-17.918-7.442-2.583-2.317-5.216-4.67-8.83-5.97 19.12-13.104 54.188-28.295 86.294-23.867 16.763 2.316 30.223 9.85 40.145 22.277 5.877 9.756 13.706 18.183 23.452 25.224-6.976 6.175-12.97 13.2-17.732 20.89-41.487-28.175-70.626-4.42-96.377 16.616-14.545 11.878-28.278 23.098-42.358 23.098h-2.59v6.022h2.59c14.08 0 27.813 11.223 42.36 23.098 17.32 14.147 36.162 29.54 59.26 29.54 11.047 0 23.078-3.535 36.374-12.396 4.89 8.18 11.13 15.65 18.486 22.164-8.65 6.254-15.856 13.38-21.566 21.366l-.154-.11zm96.628-177.72c-13.644 0-26.676 2.302-38.654 6.444-26.098-38.175-4.165-63.585 17.097-88.17 9.673-11.186 18.945-21.912 23.026-33.323 4.058 11.414 13.26 22.177 22.86 33.4 21.257 24.83 43.184 50.516 16.702 88.92-12.616-4.683-26.48-7.273-41.03-7.273zm-95.93 129.744c-38.1 25.613-64.39 4.174-89.823-16.605-11.327-9.248-22.19-18.122-33.544-22.094 11.355-3.967 22.218-12.84 33.545-22.095 25.585-20.896 52.037-42.46 90.5-16.13-6.42 11.88-10.032 25.134-10.032 39.118 0 13.473 3.364 26.265 9.355 37.806zm95.93 54.13c14.92 0 29.112-2.74 41.98-7.645 25.512 37.86 3.682 63.147-17.477 87.607-9.67 11.19-18.95 21.916-23.027 33.327-4.082-11.412-13.353-22.138-23.032-33.328-20.994-24.277-42.674-49.36-18.074-86.746 12.242 4.362 25.618 6.785 39.632 6.785zm96.05-129.51c38.784-26.616 66.357-5.3 93.033 15.362 11.515 8.92 22.555 17.47 33.892 21.34-11.387 3.954-22.47 12.732-34.02 21.886-26.58 21.056-54.06 42.782-92.744 16.25 5.814-11.4 9.07-24.003 9.07-37.265 0-13.38-3.32-26.096-9.23-37.573zm4.048 37.573c0 47.838-44.9 86.758-100.098 86.758-14.638 0-28.542-2.762-41.094-7.678l-.433-.317c-.026.04-.053.077-.076.114-34.48-13.718-58.498-43.902-58.498-78.877 0-47.835 44.905-86.756 100.102-86.756s100.098 38.92 100.098 86.756zM248.34 441.378c1.305 3.587 3.658 6.214 5.957 8.78l1.038 1.162c3.46 3.928 6.555 8.17 6.408 16.767l5.18.087c.166-9.846-3.43-15.282-7.046-19.504-.136-13.61 16.74-31.178 34.64-49.767 17.07-17.732 34.605-35.937 41.066-54.003 6.444 17.992 23.916 36 40.92 53.542 18.162 18.733 35.316 36.428 34.502 50.13l.33.02c-3.58 4.183-7.266 9.66-7.095 19.582l5.18-.087c-.16-9.452 3.53-13.567 7.442-17.93 2.293-2.552 4.632-5.162 5.94-8.713 12.075 18.953 24.236 56.13 18.13 91.712-4.07 23.71-15.513 41.93-33.986 54.216-7.893-6.615-16.944-12.178-26.88-16.41 27.715-41.15 3.635-69.33-17.69-94.255-12.232-14.297-23.783-27.804-23.783-41.96v-2.59h-6.024v2.59c0 14.17-11.625 27.623-23.937 41.863-21.332 24.664-45.412 52.54-18.178 93.424-9.986 3.992-19.154 9.285-27.177 15.67-8.967-6.288-16.273-13.79-21.87-22.475l.257-.19c-.5-.69-1.058-1.293-1.582-1.96-5.46-9.11-9.14-19.44-10.966-30.958-5.09-32.152 5.64-68.106 19.223-88.744zm360.842 166.756c-17.374-16.854-33.908-32.847-48.565-35.56 2.376-1.802 4.882-3.004 8.603-2.887l.064-2.593 1.602-2.04c-18.16-14.247-58.488-33.6-95.193-28.527-13.336 1.842-24.73 6.788-34.135 14.61 1.936-5.366 3.445-11.063 4.483-17.103 6.338-36.925-6.587-80.295-22.74-100.886l-4.836-6.165.207 7.83c.097 3.714-1.094 6.224-2.893 8.6-2.71-14.677-18.703-31.198-35.553-48.582-20.675-21.318-42.05-43.355-42.05-63.83h-5.18c0 20.478-21.457 42.755-42.21 64.308-16.532 17.168-32.248 33.51-35.5 47.975-1.738-2.34-2.886-4.822-2.79-8.47l.215-7.83-4.84 6.165c-15.87 20.23-29.633 61.38-23.87 97.782 1.062 6.715 2.73 13.04 4.96 18.993-9.115-7.125-20.02-11.654-32.66-13.396-36.715-5.073-77.03 14.284-95.176 28.528l1.596 2.04.07 2.592c3.694-.127 6.207 1.078 8.593 2.887-14.647 2.71-31.188 18.71-48.56 35.56C41.514 628.806 19.476 650.182-1 650.182v5.18c20.475 0 42.512 21.38 63.824 42.047 17.385 16.86 33.902 32.846 48.58 35.546-2.393 1.812-4.903 3.023-8.61 2.9l-.074 2.59-1.596 2.04c16.13 12.658 49.774 29.355 82.828 29.355 4.135 0 8.27-.263 12.348-.827 12.408-1.712 23.152-6.09 32.163-12.986-2.76 6.59-4.75 13.61-5.908 21.056-5.64 36.13 9.168 74.737 25.314 95.312l2.035-1.598 2.59-.067c-.097-3.715 1.09-6.22 2.89-8.597 2.717 14.668 18.71 31.18 35.56 48.56 20.672 21.308 42.048 43.348 42.048 63.817h5.18c0-20.47 21.376-42.51 42.047-63.818 16.854-17.375 32.847-33.888 35.557-48.56 1.8 2.377 2.99 4.887 2.894 8.598l2.59.067 2.04 1.598c15.8-20.134 28.45-63.23 22.28-100.482-1.058-6.37-2.637-12.405-4.716-18.082 9.532 8.168 21.166 13.297 34.83 15.183 4.088.564 8.213.828 12.35.828 33.058 0 66.71-16.696 82.842-29.355l-1.602-2.04-.067-2.59c-3.68.128-6.21-1.084-8.61-2.9 14.677-2.706 31.194-18.69 48.575-35.546 21.31-20.673 43.346-42.05 63.818-42.05v-5.178c-20.472 0-42.508-21.376-63.818-42.048zM334.108 704.68c-32.547 0-59.022-22.887-59.022-51.017 0-28.13 26.475-51.016 59.022-51.016 32.546 0 59.025 22.885 59.025 51.016 0 28.13-26.48 51.018-59.025 51.018zm0-107.216c-35.4 0-64.205 25.21-64.205 56.2 0 30.986 28.805 56.2 64.205 56.2 35.403 0 64.208-25.214 64.208-56.2 0-30.99-28.805-56.2-64.208-56.2z"/></g></svg>