<svg width="146" height="144" viewBox="0 0 146 144" xmlns="http://www.w3.org/2000/svg"><title>Page 1</title><path d="M107.936 73.856l-.248-.172c8.985-12.785 1.243-20.422-5.59-27.158-3.882-3.834-7.593-7.496-7.295-11.584-2.564 2.504-6.473 7.543-6.323 14.894l-1.73.036c-.03-1.344.07-2.612.258-3.807-1.27 1.443-2.81 2.803-4.604 4.076 5.175 7.195 10.28 15.888 8.882 24.34-.806 4.862-3.754 9.136-8.762 12.718 2.153 2.1 4.526 4.146 6.944 6.226 2.16 1.862 4.335 3.733 6.382 5.67-1.61-6.162 3.982-13.937 9.418-21.492a315.62 315.62 0 0 0 2.668-3.746zM73.48 70.004c0 6.266 3.27 11.274 7.803 15.95 4.762-3.34 7.555-7.29 8.294-11.754 1.606-9.713-6.34-20.182-12.14-27.828-2.3-3.036-4.135-5.46-4.983-7.32-.848 1.86-2.682 4.284-4.983 7.318-5.8 7.646-13.745 18.117-12.14 27.828.734 4.424 3.483 8.344 8.167 11.666 4.487-4.65 7.714-9.635 7.714-15.86h2.27zM62.26 87.112c-4.933-3.565-7.84-7.81-8.637-12.63-1.402-8.476 3.732-17.19 8.918-24.394-1.715-1.437-3.153-2.857-4.342-4.265.213 1.265.324 2.615.294 4.05l-1.73-.037c.15-7.35-3.76-12.39-6.324-14.894.3 4.088-3.41 7.75-7.297 11.584-6.83 6.736-14.57 14.373-5.587 27.158l-.247.172c.87 1.246 1.77 2.5 2.666 3.744 5.25 7.293 10.644 14.79 9.56 20.852 1.844-1.71 3.77-3.373 5.693-5.028 2.452-2.11 4.858-4.183 7.035-6.312zm1.305-38.426c.863-1.17 1.715-2.293 2.527-3.365 2.64-3.482 5.138-6.773 5.143-8.175l1.22.004 1.22-.005c.004 1.402 2.5 4.693 5.143 8.178.823 1.088 1.69 2.23 2.567 3.418 4.7-3.325 7.46-7.255 8.192-11.69 1.606-9.714-6.34-20.182-12.14-27.827-2.142-2.826-3.882-5.12-4.796-6.925-.965 3.617-3.992 7.44-7.408 11.747-8.043 10.143-17.128 21.625-1.667 34.64zm81.667 64.07c-.264 11.96-5.436 21.7-15.367 28.954l-1.022-1.4c9.472-6.92 14.405-16.202 14.657-27.59.133-5.993-1.087-12.192-3.245-18.255-.71 3.49-2.573 5.186-4.265 6.723-1.918 1.738-3.43 3.113-3.175 6.883l-1.728.118c-.31-4.605 1.748-6.475 3.737-8.28 2.123-1.93 4.127-3.76 3.99-9.148-5.104-12.093-13.715-23.338-22.552-30.884-.08 5.525-4.71 11.966-9.587 18.738-5.914 8.217-12.03 16.715-8.136 22.2.048.07 4.308 6.13 10.305 6.438 3.61.174 7.235-1.77 10.693-5.814 1.2-1.404 1.686-3.088 1.405-4.875-.124-.795-.416-1.58-.832-2.342a22.405 22.405 0 0 0-1.377-1.91 12.704 12.704 0 0 0-2.665-2.16c-2.573-1.587-6.763.106-8.788 2.68-.94 1.196-2.177 3.547.14 5.842 1.143 1.135 2.302 1.56 3.44 1.266 1.488-.383 2.54-1.865 2.64-2.2.232-1.884-1.282-2.294-1.588-2.357l.325-1.7c1.188.223 3.337 1.41 2.973 4.315-.106.84-1.53 2.814-3.543 3.507-1.307.45-3.314.538-5.468-1.6-2.352-2.333-2.456-5.378-.28-8.144 2.48-3.15 7.63-5.19 11.057-3.084 2.127 1.31 3.717 2.95 4.69 4.764 5.666 8.87 12.764 30.467-8.225 48.818l-1.14-1.302c17.098-14.952 14.727-32.098 10.32-42.057a7.776 7.776 0 0 1-1.768 3.668c-3.652 4.27-7.528 6.432-11.528 6.432-.192 0-.386-.006-.578-.016-2.213-.114-4.185-.876-5.852-1.86 5.865 8.69 7.03 19.57-4.867 36.13l-1.408-1.013c17.928-24.95 5.195-35.902-8.285-47.498-6.868-5.91-13.932-11.99-15.99-20.01-2.06 8.02-9.124 14.1-15.99 20.01-13.48 11.595-26.21 22.548-8.285 47.497l-1.406 1.012c-11.685-16.263-10.77-27.05-5.178-35.665-1.475.75-3.148 1.298-4.993 1.396-.193.01-.388.017-.58.017-4 0-7.876-2.162-11.528-6.434a7.798 7.798 0 0 1-1.767-3.666c-4.408 9.96-6.78 27.104 10.318 42.057l-1.14 1.302c-20.986-18.35-13.892-39.937-8.225-48.812.97-1.817 2.563-3.46 4.692-4.77 3.426-2.11 8.578-.068 11.057 3.084 2.177 2.766 2.073 5.81-.278 8.145-2.157 2.14-4.165 2.05-5.47 1.6-2.012-.696-3.438-2.667-3.543-3.508-.362-2.905 1.787-4.092 2.974-4.315l.325 1.7c-.307.064-1.82.474-1.58 2.4.09.293 1.143 1.775 2.63 2.158 1.143.297 2.3-.133 3.444-1.266 2.313-2.295 1.08-4.646.137-5.843-2.023-2.574-6.213-4.267-8.787-2.68a12.712 12.712 0 0 0-2.664 2.16c-.435.532-.904 1.183-1.385 1.92-.412.757-.702 1.54-.827 2.33-.28 1.788.205 3.474 1.405 4.878 3.46 4.047 7.056 6.004 10.703 5.813 6.01-.312 10.248-6.365 10.29-6.425 3.903-5.498-2.213-13.994-8.13-22.21-4.874-6.775-9.507-13.214-9.588-18.74-8.836 7.55-17.446 18.792-22.55 30.885-.137 5.39 1.866 7.22 3.99 9.147 1.99 1.806 4.047 3.676 3.738 8.28l-1.728-.116c.253-3.77-1.26-5.144-3.175-6.882-1.694-1.537-3.555-3.234-4.266-6.72-2.158 6.06-3.378 12.26-3.245 18.25.252 11.39 5.183 20.673 14.655 27.593l-1.02 1.4C5.444 134.456.276 124.715.01 112.756c-.213-9.607 2.847-20.306 8.848-30.94 5.375-9.524 12.71-18.27 20.65-24.632l.542.676.842.2c-.455 1.923-.025 4.13.95 6.5-1.014-8.31 4.987-14.24 10.084-19.268 5.207-5.14 8.286-8.49 6.068-12.48l-1.71-3.073 2.94 1.927c.178.115 2.157 1.447 4.24 3.966-.894-8.392 5.162-16.046 10.41-22.664C67.657 8.2 71.23 3.697 71.235 0l1.338.002L73.674 0c.005 1.402 2.502 4.692 5.144 8.176 5.745 7.57 13.52 17.825 12.624 27.87 2.202-2.79 4.39-4.258 4.575-4.38l2.94-1.927-1.71 3.073c-2.217 3.988.86 7.34 6.07 12.48 5.096 5.026 11.097 10.958 10.083 19.266.974-2.372 1.404-4.577.95-6.5l.842-.2.54-.676c7.943 6.36 15.275 15.108 20.654 24.633 6 10.633 9.058 21.334 8.846 30.94zm-72.116 4.198l-.166-.053c.003-.07.017-.14.017-.212l-.67-.002-.826-.27c-.028.088-.05.176-.07.266h-.165c-.007 1.754-1.224 3.473-2.632 5.467-3.128 4.42-7.412 10.48.31 21.226l1.407-1.012c-7.002-9.744-3.443-14.776-.304-19.215.706-1 1.39-1.974 1.922-2.962.462.955 1.115 1.93 1.81 2.965 2.927 4.365 6.57 9.8-.193 19.21l1.408 1.013c7.463-10.39 3.278-16.63.223-21.186-1.42-2.12-2.542-3.793-2.07-5.236zm8.09-4.098c6.612 6.762 14.104 14.428 2.5 30.58l-1.408-1.012c10.756-14.97 4.4-21.472-2.33-28.357-3.096-3.168-6.268-6.418-7.632-10.522-1.416 4.14-4.726 7.41-7.958 10.594-6.976 6.876-13.566 13.37-2.85 28.284l-1.407 1.012c-11.58-16.117-3.812-23.775 3.042-30.53 4.195-4.136 8.158-8.042 8.158-13.618h2.055c0 5.556 3.804 9.45 7.83 13.568z" fill="#93649C" fill-rule="evenodd" fill-opacity=".1"/></svg>