<svg width="267" height="267" viewBox="0 0 267 267" xmlns="http://www.w3.org/2000/svg"><title>Page 1</title><path d="M148.412 242.29c4.163 3.91 8.516 7.856 12.74 12.183a94.334 94.334 0 0 1 6.697 7.633 133.293 133.293 0 0 1-34.535 4.524c-11.515 0-22.69-1.463-33.352-4.213a94.91 94.91 0 0 1 6.347-7.188c4.485-4.596 9.116-8.76 13.51-12.91a111.016 111.016 0 0 0 28.592-.03zm-14.353 9.855a4.05 4.05 0 0 1 3.826 4.257 4.05 4.05 0 0 1-4.258 3.827 4.05 4.05 0 0 1-3.826-4.26 4.05 4.05 0 0 1 4.257-3.825zm84.3-48.143c4.168 1.336 9.187 3.476 11.008 6.405 3.322 5.348-.61 10.557-.61 10.557s12.478-10.324 5.855-17.148c-6.622-6.824-10.446-6.8-10.446-6.8s8.77-1.5 15.84-9.253c2.943-3.228 1.427-28.203 6.16-30.028 4.734-1.825 11.926-2.238 8.698 1.364-3.228 3.6-7.415 1.785-8.543 3.56-3.374 5.313 7.99 9.51 8.33 21.382.14 4.865 2.82-11.152 1.316-15.98-1.437-4.62 2.816-4.68 7.752-6.943-9.8 46.114-43.472 83.446-87.447 98.426a96.03 96.03 0 0 1 4.735-5.217c10.6-10.86 22.016-19.317 29.205-30.868 2.94-4.72 3.433-9.908 3.177-13.96a109.89 109.89 0 0 0 4.97-5.5zM3.066 161.842c5.214 2.59 9.93 2.435 8.427 7.264-1.503 4.83 1.178 20.846 1.317 15.98.337-11.87 11.703-16.068 8.328-21.38-1.127-1.776-5.314.04-8.542-3.562-3.228-3.602 3.964-3.19 8.697-1.364 4.734 1.825 3.218 26.8 6.16 30.028 7.07 7.754 15.84 9.253 15.84 9.253s-3.823-.023-10.445 6.8c-6.622 6.825 5.856 17.15 5.856 17.15s-3.933-5.21-.61-10.558c1.973-3.176 7.707-5.424 12.04-6.726 1.317 1.537 2.668 3.03 4.052 4.478-.453 4.202-.214 10.04 3.06 15.303 7.192 11.55 18.608 20.006 29.208 30.866a96.744 96.744 0 0 1 3.815 4.143c-43.704-14.92-77.216-51.923-87.205-97.674zm75.684 66.646a110.216 110.216 0 0 0 25.87 10.784c-2.625 1.92-5.522 4.118-8.31 6.984-7.303-7.445-15.318-10.35-17.194-15.76-.263-.758-.373-1.423-.367-2.008zm109.786.322a7.11 7.11 0 0 1-.192.642c-1.887 5.445-9.994 8.352-17.335 15.904-2.434-2.48-4.947-4.457-7.286-6.19 8.54-2.386 16.88-5.83 24.812-10.356zM38.816 76.753C25.253 99.776 20.58 126.97 25.373 152.985c-1.34-.536-2.876-.893-4.644-1.04-10.182-.847-16.474 2.086-18.624 5.08A133.888 133.888 0 0 1 0 133.316c0-6.496.466-12.885 1.366-19.134 3.104.985 7.194 1.493 12.238 1.074 20.106-1.672 10.102-30.56 25.21-38.5zm201.434 26.294c1.94 6.33 5.156 11.39 13.23 12.062 4.802.4 8.74-.043 11.784-.934.9 6.25 1.366 12.64 1.366 19.14 0 7.497-.62 14.85-1.813 22.012-2.55-2.75-8.65-5.213-18.087-4.428-1.51.126-2.852.405-4.046.818 2.783-16.08 2.02-32.732-2.434-48.67zM23.795 57.32c-.093 1.746.426 3.47 1.927 5.018 6.623 6.824 10.445 6.8 10.445 6.8s-8.77 1.5-15.838 9.252c-2.944 3.23-1.428 28.204-6.162 30.03-4.734 1.823-11.925 2.237-8.698-1.365 3.228-3.603 7.415-1.786 8.543-3.56 2.577-4.06-3.444-7.467-6.584-14.138A132.923 132.923 0 0 1 23.794 57.32zm219.494.656a132.93 132.93 0 0 1 16.07 31.84c-3.204 6.277-8.784 9.6-6.287 13.533 1.128 1.775 5.314-.042 8.543 3.56 3.228 3.603-3.965 3.19-8.698 1.364-4.733-1.825-3.217-26.8-6.16-30.027-7.07-7.754-15.84-9.253-15.84-9.253s3.824.024 10.446-6.8c1.27-1.31 1.838-2.747 1.925-4.218zM4.536 98.734c.306 1.432-.023 2.37-.788 3.083.25-1.033.512-2.06.787-3.083zM229.3 77.206c7.576 4.833 8.134 15.51 10.51 24.313a109.548 109.548 0 0 0-10.51-24.314zM80.043 11.086c-.234.245-.472.49-.714.74-10.6 10.86-22.016 19.315-29.206 30.866-5.263 8.454-2.686 18.4-1.997 20.65l-.303.375c-2.43-.52-13.89-3.197-16.854-7.97-1.432-2.305-1.516-4.585-1.15-6.432 13.364-16.44 30.56-29.637 50.224-38.228zm107.583.46c19.52 8.727 36.564 22.013 49.775 38.5.178 1.67-.07 3.603-1.282 5.557-2.786 4.484-13.07 7.12-16.318 7.852a118.62 118.62 0 0 0-.674-.825c.84-3.04 2.74-12.207-2.162-20.083-7.19-11.55-18.606-20.006-29.206-30.866l-.133-.135zM67.15 44.925c-.796.607-1.586 1.224-2.37 1.854a111.168 111.168 0 0 0-3.687 3.094c.3-.512.654-1.037 1.063-1.573 1.134-1.482 2.99-2.575 4.993-3.373zm134.267.52c1.414.712 2.666 1.603 3.513 2.71.084.11.166.22.245.33a109.328 109.328 0 0 0-3.758-3.04zM72.52 41.092c-.82-.92-1.252-2.306-.53-4.387 1.89-5.446 9.995-8.352 17.337-15.905 3.066 3.126 6.258 5.45 9.068 7.498A109.64 109.64 0 0 0 72.52 41.09zm96.526-12.91c2.766-2.014 5.872-4.316 8.854-7.382 7.303 7.445 15.32 10.35 17.195 15.76.66 1.9.358 3.222-.324 4.137a109.968 109.968 0 0 0-25.724-12.515zM93.986 5.907C106.418 2.067 119.625 0 133.315 0c13.855 0 27.22 2.12 39.786 6.05a96.365 96.365 0 0 1-5.2 5.776c-4.377 4.483-8.893 8.557-13.193 12.61a110.97 110.97 0 0 0-42.098.077c-4.37-4.125-8.97-8.266-13.428-12.832a96.078 96.078 0 0 1-5.2-5.773zm39.698 1.24a4.05 4.05 0 0 1 3.827 4.257 4.05 4.05 0 0 1-4.257 3.827 4.05 4.05 0 0 1-3.826-4.256 4.05 4.05 0 0 1 4.257-3.827z" fill="#93649C" fill-rule="evenodd"/></svg>