<svg width="937" height="138" viewBox="0 0 937 138" xmlns="http://www.w3.org/2000/svg"><title>Group 3</title><g fill="none" fill-rule="evenodd"><text font-family="OilCan, Oil Can" font-size="72" letter-spacing="20" transform="translate(-460)"><tspan x="457.596" y="97" fill="#FFF">Majestic </tspan> <tspan x="1162.3" y="97" fill="#93649C">Tha</tspan> <tspan x="1381.348" y="97" fill="#93649C">i</tspan></text><path d="M612.09 1.912c.247-1.2.424-1.912.424-1.912s.04.126.12.364c.044-.127.065-.193.065-.193s.097.394.248 1.087c.812 2.278 2.758 7.406 5.776 13.362 6.532 12.89 13.567 22.925 17.998 36.635 3.682 11.393 1.137 25.067 1.137 25.067s8.617-3.224 10.665-9.572c2.047-6.348-.377-12.53-.377-12.53s7.69 12.254 3.61 20.353c-4.082 8.1-6.437 8.07-6.437 8.07s5.405 1.78 9.76 10.983c1.815 3.832.88 33.475 3.797 35.64 2.917 2.168 7.35 2.658 5.36-1.617-1.99-4.277-4.57-2.12-5.265-4.228-2.08-6.307 4.925-11.29 5.134-25.378.085-5.775 1.737 13.236.81 18.967-.925 5.732 1.98 5.55 5.194 8.623 3.213 3.073-.644 13.387-10.886 11.747-12.678-2.03-5.926-37.892-16.213-46.316-8.758-7.174-14.393-4.297-14.198-11.13.167-5.854 4.298-12.435.494-22.02-2.185-5.507-8.728-6.463-8.728-6.463s3.853-.723 2.668-7.304c-1.156-6.422-6.095-9.87-10.596-18.706-4.524 8.963-9.52 12.414-10.683 18.877-1.185 6.582 2.668 7.305 2.668 7.305s-6.543.956-8.728 6.462c-3.803 9.587.327 16.167.494 22.02.197 6.834-5.44 3.957-14.198 11.13-10.287 8.425-3.534 44.287-16.213 46.317-10.243 1.642-14.1-8.673-10.887-11.746 3.213-3.073 6.12-2.89 5.193-8.622-.926-5.73.726-24.742.812-18.967.208 14.09 7.212 19.072 5.132 25.378-.695 2.107-3.275-.05-5.264 4.227-1.99 4.275 2.443 3.785 5.36 1.62 2.917-2.168 1.983-31.81 3.796-35.642 4.357-9.203 9.76-10.982 9.76-10.982s-2.355.028-6.436-8.07c-4.08-8.1 3.61-20.355 3.61-20.355s-2.425 6.184-.378 12.53c2.048 6.35 10.666 9.574 10.666 9.574s-2.545-13.675 1.137-25.068c4.432-13.71 11.467-23.746 18-36.636a120.038 120.038 0 0 0 5.6-12.878z" fill="#FFF"/></g></svg>