<svg width="163" height="105" viewBox="0 0 163 105" xmlns="http://www.w3.org/2000/svg"><title>Page 1</title><g fill="#8DBB60" fill-rule="evenodd"><path d="M2.67 54.513c6.328 1.24 14.938 4.984 19.494 11.02 4.556 6.037 5.534 11.864 4.802 13.145-2.258 3.952-8.783-3.563-14.588-8.08C6.574 66.08-.312 53.93 2.668 54.513zM23.66 42.38c5.28 2.628 11.936 8.25 14.423 15.265 2.487 7.015 3.482 10.43 2.872 13.16-.995 4.45-8.84-4.495-12.82-10.27-3.98-5.778-6.963-19.393-4.476-18.155zM55.925 63.653c-4.927-3.108-10.857-9.325-12.47-16.532-1.612-7.206-2.182-10.694-1.24-13.352 1.534-4.33 8.237 5.3 11.485 11.416 3.248 6.116 4.546 19.933 2.225 18.47zM106.243 14.21c3.72 3.17 7.328 9.785 7.032 16.39-.295 6.602-1.12 9.818-2.49 12.027-2.233 3.6-6.373-5.814-7.665-11.695-1.293-5.88-.875-20.126 3.123-16.72zM69.46 27.634c6.59-4.418 10.98 28.408 2.93 29.522-8.052 1.114-10.226-24.63-2.93-29.522zM118.49 38.04c-.767-6.055 29.356 9.152 26.623 14.245-2.733 5.094-25.777-7.538-26.624-14.244zM84.675 88.147c-5.38-2.47-12.25-7.894-15.006-14.83-2.758-6.936-3.884-10.32-3.38-13.067.823-4.477 9.01 4.23 13.21 9.886 4.2 5.656 7.708 19.175 5.175 18.01zM50.873 65.92c5.045 2.96 11.21 8.998 13.1 16.153 1.892 7.155 2.597 10.625 1.758 13.31-1.365 4.373-8.437-5.053-11.92-11.07-3.482-6.017-5.313-19.788-2.937-18.393zM39.468 104.24c-6.415 4.61-12.07-28.068-4.066-29.42 8.003-1.35 11.17 24.314 4.066 29.42zM124.98 7.787c5.356-3.757 8.922 25.055 2.38 26.002-6.544.947-8.31-21.843-2.38-26.003zM99.764 48.9c1.184-6.742 27.404 8.124 22.913 14.04-4.49 5.92-24.223-6.576-22.913-14.04z"/><path d="M2.802 99.948L0 98.878c3.37-8.85 40.85-32.93 67.552-41.238 32.478-10.105 64.66-27.35 71.735-36.016l2.324 1.897c-7.358 9.016-39.218 26.423-73.167 36.985-27.995 8.71-63.124 32.837-65.64 39.443z"/><path d="M89.953 52.028c-5.536 4.19-8.782-24.973-2.196-30.736 6.587-5.763 7.6 26.647 2.196 30.736zM141.053 23.775c-6.34 1.825-2.425-20.802 5.306-23.56 7.73-2.755.882 21.777-5.307 23.56z"/><path d="M162.363 24.07c4.25 4.823-19.24 7.577-27.025 4.228-5.866-2.523 22.874-8.94 27.025-4.23zM80.44 54.59c-3.442 9.03 19.027 28.815 23.418 21.77 4.39-7.043-21.955-25.612-23.42-21.77z"/></g></svg>