<svg width="1441" height="672" viewBox="0 0 1441 672" xmlns="http://www.w3.org/2000/svg"><title>Group 5</title><g fill="#93649C" fill-rule="evenodd" fill-opacity=".07"><path d="M344.085 244.045c-12.407 3.476-24.127 6.766-31.02 3.622l-.08.175c-1.575-2.36-3.66-4.89-8.73-6.84l-1.016 2.635c4.893 1.884 6.465 4.322 7.985 6.68.8 1.24 1.632 2.5 2.866 3.618-7.027.533-16.976-.14-27.276-2.687-.115-.262-.22-.533-.342-.797l-.978.456c-12.66-3.32-25.64-9.51-34.185-19.772 4.416-2.492 8.53-7.026 12.136-12.728 7.467 5.806 15.16 7.665 22.75 7.665 6.88 0 13.675-1.51 20.124-2.945 9.195-2.048 17.884-3.986 25.135-1.08l.136-.34.234-.583.683-1.7.133-.342c-7.24-2.896-12.235-10.273-17.523-18.082-8.256-12.204-17.503-25.823-37.64-26.387a65.17 65.17 0 0 0 .162-4.437c0-4.74-.557-8.88-1.612-12.378 24.592-4.984 54.278 13.42 66.03 26.226-1.653-.04-3.12.297-4.545.642-2.733.658-5.552 1.34-10.392-.676l-1.084 2.61c2.84 1.18 5.115 1.568 7.06 1.568 1.488 0 2.777-.23 3.978-.498l-.062.18c7.165 2.487 13.375 12.956 19.958 24.04 5.94 10.015 12.05 20.278 19.714 26.55-9.878-.75-21.382 2.46-32.6 5.61zM288.64 302.34c-5.77-3.347-13.595-4.502-21.757-5.71-9.7-1.432-19.734-2.912-27.118-8.156l-.445.627c1.684-10.754 1.832-22.578-.89-33.308 3.015 2.18 6.53 3.48 9.706 4.655 4.074 1.507 7.928 2.93 9.83 5.733l.148-.1 2.336-1.588c-1.905-2.802-1.795-6.905-1.674-11.246.102-3.895.22-8.268-1.207-12.353 8.005 6.08 17.656 10.134 27.128 12.643 2.96 7.825 2.605 17.158 2.257 26.207-.32 8.32-.62 16.286 1.684 22.598zm-52.012-52.33a48.164 48.164 0 0 0-2.21-5.032c-.238-1-.394-2.097-.488-3.275.02-.038.042-.073.06-.106 1.903-3.506 2.37-7.326 1.404-11.42 2.677 2.048 5.516 3.08 8.487 3.08h.003c.806 0 1.603-.102 2.398-.246 10.083 4.715 9.875 12.567 9.67 20.16-.074 2.712-.126 5.33.257 7.744-2.1-1.252-4.548-2.176-7.092-3.117-4.728-1.75-9.556-3.556-12.487-7.788zm-7.586 63.623c-.56-1.558-1.4-2.8-2.236-4.01-1.596-2.31-3.245-4.7-3.11-9.938l-2.825-.07c-.138 5.426 1.398 8.322 2.976 10.683l-.19.006c.26 7.577-7.27 17.145-15.242 27.27-7.207 9.153-14.58 18.544-17.67 27.95-2.857-9.486-9.997-19.058-16.967-28.39-7.717-10.324-15.003-20.073-14.552-27.638l-.19-.012c1.635-2.322 3.244-5.176 3.238-10.607l-2.825.002c.006 5.24-1.705 7.585-3.356 9.854-.87 1.193-1.746 2.42-2.346 3.974-6.745-14.18-13.107-44.06-1.97-65.57 4.18 3.554 9.97 6.083 16.307 7.768-3.845 16.148 4.25 28.403 11.613 39.462 5.22 7.846 10.152 15.257 10.055 23.064l2.828.035v-.002l.364.004c.096-7.8 5.18-15.117 10.563-22.86 7.79-11.203 16.415-23.63 12.3-40.498 6.278-1.97 11.824-4.848 15.502-8.824.18.335.377.662.548 1.003.503 1.835 1.205 3.43 2.08 4.8 7.675 20.957 1.854 48.92-4.893 62.543zm-85.313-26.87c-7.01 5.417-16.733 7.428-26.146 9.366-8.153 1.68-15.96 3.292-21.536 7.04 1.867-6.404 1.115-14.273.335-22.486-.88-9.224-1.778-18.744.928-26.87 9.46-2.397 19.168-6.332 27.298-12.265-1.102 3.858-.966 7.926-.83 11.582.163 4.376.315 8.508-1.573 11.31l.15.1c-.002 0-.002.002-.002.002l2.344 1.578c1.89-2.804 5.785-4.193 9.905-5.662 3.683-1.316 7.815-2.79 11.094-5.586-3.056 10.305-3.273 21.563-1.967 31.89zM95.187 251.36c-.02.052-.036.102-.054.15-9.9 2.328-19.39 2.94-26.164 2.425 1.234-1.117 2.067-2.377 2.864-3.618 1.522-2.358 3.096-4.796 7.986-6.68L78.804 241c-5.07 1.952-7.155 4.48-8.727 6.842l-.08-.175c-6.896 3.144-18.616-.146-31.023-3.622-11.215-3.15-22.72-6.362-32.6-5.61 7.668-6.27 13.774-16.534 19.72-26.55 6.576-11.083 12.788-21.552 19.953-24.04l-.062-.18c1.2.27 2.492.5 3.978.5 1.943 0 4.222-.388 7.062-1.57l-1.083-2.61c-4.844 2.016-7.663 1.335-10.396.677-1.426-.345-2.89-.68-4.545-.64 11.474-12.498 40.023-30.328 64.255-26.546-1.382 4.65-1.925 10.6-1.557 17.252-18.842 1.336-27.765 14.456-35.756 26.27-5.286 7.81-10.278 15.19-17.523 18.082l.137.34-.005.002 1.052 2.623c7.246-2.902 15.934-.968 25.137 1.08 6.448 1.434 13.24 2.946 20.122 2.946 7.155 0 14.412-1.66 21.48-6.72 4.067 6.15 8.454 10.383 12.85 12.446-9.045 10.44-22.73 16.548-35.78 19.654l-.224-.09zM50.552 139.623c-4.267-7.153-8.354-14-13.73-18.04 6.67-.334 13.862-3.62 21.368-7.054 8.784-4.025 17.84-8.164 26.78-7.937 4.787 8.54 10.978 16.66 18.53 22.63-4.097-.015-8.087 1.334-11.66 2.556-4.21 1.435-8.183 2.795-11.372 1.73l-.898 2.678h.002l-.058.18c3.19 1.07 5.525 4.554 8.003 8.25 2.212 3.303 4.71 7.004 8.264 9.47-9.365.434-18.866 3.292-27.55 7.325-7.552-4.81-12.702-13.438-17.678-21.79zm25.78-65.93c1.33.978 2.722 1.543 4.09 2.078 2.612 1.03 5.313 2.09 8.127 6.514l2.38-1.51c-2.91-4.585-5.8-6.13-8.426-7.21l.154-.113c-4.443-6.142-3.53-18.28-2.563-31.134.876-11.614 1.757-23.522-.924-33.056 7.66 6.278 18.926 10.244 29.92 14.1 12.162 4.263 23.65 8.29 27.494 14.82l.165-.096c-.062 2.838.192 6.106 3.227 10.61l2.342-1.58c-2.928-4.346-2.815-7.246-2.71-10.048.057-1.478.097-2.987-.272-4.61 11.887 7.044 30.31 24.337 36.448 44.79.046 1.905.48 3.93 1.43 6.094.092.547.146 1.1.213 1.655-5.08.07-11.095 1.73-17.378 4.46-5.594-16.332-19.473-22.118-32.018-27.3-8.712-3.6-16.937-6.996-21.213-13.533l-.303.2-2.363 1.547c4.27 6.525 4.126 15.43 3.98 24.863-.226 14.23-.46 30.074 14.117 41.967-4.473 5.22-7.65 10.403-8.75 14.97-21.876-10.904-34.95-41.723-37.17-58.477zm100.71-48.857c5.576-6.18 10.908-12.106 13.185-18.426 2.288 6.268 7.55 12.17 13.045 18.322 6.38 7.148 12.96 14.54 15.42 23.04-6.063 6.835-11.602 14.935-15.14 23.752-1.396-3.723-3.977-6.943-6.305-9.843-2.835-3.53-5.515-6.865-5.515-10.208H188.703c0 3.347-2.69 6.666-5.545 10.182-2.376 2.93-5.024 6.19-6.41 9.976-3.54-8.866-9.104-17.008-15.195-23.872 2.467-8.47 9.08-15.817 15.49-22.922zm63.88 7.617c-.37 1.626-.33 3.135-.272 4.613.104 2.8.217 5.702-2.712 10.05l2.344 1.577c3.035-4.503 3.29-7.774 3.228-10.61l.167.097c3.845-6.53 15.332-10.557 27.494-14.82 10.993-3.856 22.257-7.822 29.918-14.1-2.68 9.534-1.798 21.444-.926 33.056.968 12.85 1.882 24.99-2.56 31.135l.15.114c-2.624 1.078-5.513 2.625-8.424 7.21l2.384 1.51c2.812-4.425 5.513-5.483 8.125-6.513 1.368-.534 2.76-1.1 4.093-2.077-2.196 16.554-14.985 46.842-36.39 58.086-1.215-4.604-4.46-9.798-9.007-15.023 14.037-11.84 13.812-27.467 13.592-41.52-.148-9.434-.29-18.342 3.982-24.868l-2.365-1.548s0 .002-.002.002l-.302-.202c-4.276 6.537-12.5 9.934-21.21 13.532-12.456 5.148-26.23 10.89-31.9 26.965-6.146-2.593-12.014-4.142-16.96-4.142-.196 0-.375.027-.57.03.045-.363.08-.727.137-1.087 1.18-2.516 1.66-4.854 1.648-7.036 6.246-20.293 24.524-37.426 36.338-44.43zm22.166 112.468c3.813-2.607 4.958-6.01 4.996-9.096 7.378-7.79 14.333-4.75 21.682-1.503 2.702 1.19 5.316 2.343 7.867 2.863-1.964 1.707-3.675 3.978-5.44 6.343-4.534 6.085-8.854 11.835-17.93 9.897-2.476-4.744-6.252-7.68-11.175-8.502zm14.143 32.535c18.78.456 27.31 12.957 35.55 25.125 3.918 5.79 7.686 11.344 12.405 15.24-6.11-.42-12.66 1.027-19.48 2.547-13.568 3.02-27.53 6.108-40.79-4.393 6.42-11.158 10.975-25.89 12.316-38.52zM269.3 75.277c.222 14.006.426 28.412-12.658 39.383-8.878-9.505-21.667-18.81-33.73-24.398 5.2-15.037 17.953-20.358 30.393-25.496 6.458-2.67 12.657-5.238 17.416-9.087-1.627 5.9-1.53 12.61-1.42 19.597zm-89.442 7.047a53.676 53.676 0 0 0-1.262-5.32c-.077-5.124 3.267-9.27 6.756-13.57 1.884-2.32 3.693-4.572 4.863-6.92 1.164 2.35 2.956 4.605 4.828 6.937 3.376 4.206 6.613 8.265 6.726 13.203a53.24 53.24 0 0 0-1.46 6.185 21.7 21.7 0 0 1-1.524 2.675c-3.885.972-6.668 3.27-8.21 6.79-1.646-3.757-4.718-6.113-9.028-6.956a20.983 20.983 0 0 1-1.69-3.023zm-70.32-26.643c4.76 3.848 10.958 6.417 17.416 9.086 12.542 5.182 25.406 10.54 30.52 25.862-12.015 5.706-24.64 15.008-33.35 24.46-13.608-11.024-13.387-25.624-13.167-39.81.11-6.987.21-13.7-1.42-19.597zm6.645 160.188c.212.37.428.716.64 1.074-12.865 9.297-26.348 6.343-39.47 3.425-6.822-1.52-13.37-2.967-19.48-2.546 4.72-3.896 8.49-9.45 12.408-15.24 7.954-11.747 16.17-23.803 33.622-25.04 1.1 11.96 5.042 25.806 12.28 38.328zm-3.11-79.7c.12 2.995 1.32 6.242 4.994 8.753-4.618.77-8.31 3.38-10.778 7.662-.253.435-.488.9-.71 1.38-8.748.918-12.643-4.838-16.717-10.92-1.6-2.384-3.154-4.674-4.976-6.46 2.53-.323 5.153-1.204 7.865-2.13 6.758-2.31 13.723-4.657 20.32 1.717zM126.6 253.027c-.275-7.478-.533-15.193 8.854-19.915.605.087 1.21.147 1.81.147h.005c2.974-.002 5.81-1.035 8.49-3.083-.967 4.097-.503 7.917 1.402 11.423.414.764.888 1.494 1.417 2.192-1.418 9.167-8.267 11.634-14.925 14.01-2.604.928-5.113 1.84-7.245 3.1.375-2.447.294-5.112.19-7.874zm74.588 39.972c-3.99 5.74-7.813 11.254-9.753 17.058-1.805-5.846-5.515-11.437-9.387-17.254-7.313-10.987-14.783-22.29-11.225-37.228 6.574 1.476 13.538 2.113 19.754 2.113 7.086 0 15.145-.827 22.49-2.78 3.734 15.547-4.158 26.98-11.88 38.09zm42.695-62.568c-4.39.002-8.554-2.98-12.374-8.862l-2.372 1.538c4.222 6.498 5.017 12.266 2.37 17.142-4.743 8.74-21.196 14.616-40.93 14.616-19.74 0-36.188-5.875-40.933-14.616-2.65-4.876-1.853-10.644 2.37-17.142l-2.37-1.538c-3.822 5.88-7.983 8.862-12.376 8.862h-.005c-6.07 0-12.687-5.673-18.638-15.97-10.36-17.94-16.56-47.177-8.894-60.467 3.235-5.598 8.725-7.584 16.213-5.9l.618-2.756c-7.65-1.72-11.218-5.394-10.606-10.92 1.884-16.99 41.177-46.612 61.824-46.612 7.66 0 11.382 3.987 11.382 12.185h2.827c0-8.198 3.723-12.185 11.378-12.185 20.65 0 59.94 29.622 61.828 46.61.612 5.528-2.956 9.2-10.608 10.922l.618 2.755c1.732-.39 3.374-.585 4.886-.585 12.81 0 14.72 14.204 14.72 22.668.002 12.15-3.774 27.37-9.86 39.718-6.426 13.053-14.105 20.537-21.07 20.537zm77.305-113.313c7.417 3.635 14.527 7.113 21.186 7.62-5.038 3.68-8.485 9.83-12.082 16.247-4.264 7.61-8.677 15.462-16.12 20.135-8.872-4.043-18.565-6.837-28.075-7.064 3.465-2.294 6.054-5.742 8.363-8.84 2.694-3.61 5.24-7.02 8.477-7.88l-.052-.19h.002l-.73-2.734c-3.234.862-7.13-.858-11.25-2.677-3.873-1.71-8.247-3.64-12.826-3.616 6.417-5.4 11.808-12.323 16.138-19.668v.02h.402c8.923 0 17.89 4.392 26.568 8.645zm38.21 93.328c-5.884-9.913-11.488-19.338-18.11-23.593 1.194-.073 2.43.083 3.936.725l.554-1.3 1.137-.838c-5.082-6.902-16.292-16.216-29.778-22.91 7.19-5.14 11.652-13.08 15.62-20.165 4.513-8.053 8.772-15.66 16.073-17.702l-.127-.466c.046-.015.093-.023.14-.036l-.763-2.72c-7.41 2.08-16.27-2.262-25.647-6.86-8.604-4.217-17.462-8.513-26.64-8.9 7.24-13.247 11.097-27.345 11.303-35.932l-1.413-.035-1.197-.75c-.866 1.39-1.79 2.226-2.81 2.85 2.983-7.284 2.17-18.218 1.303-29.71-1.1-14.617-2.24-29.733 3.92-39.15l-2.364-1.546c-6.16 9.42-20.466 14.435-34.3 19.284-10.877 3.817-21.22 7.454-26.694 13.1.162-1.18.56-2.36 1.484-3.715l-1.164-.797-.6-1.28c-5.864 2.735-14.4 8.937-22.372 17.372-2.93-8.408-9.31-15.573-15.51-22.518C198.424 15.058 191.858 7.698 191.858 0h-2.825c0 .048.007.096.007.144h-.486c0 7.708-6.612 15.038-13.61 22.8-6.23 6.907-12.644 14.033-15.587 22.416-7.97-8.43-16.498-14.63-22.36-17.362l-.6 1.28-1.166.797c.925 1.354 1.325 2.534 1.49 3.716-5.476-5.646-15.82-9.283-26.695-13.097C96.19 15.843 81.88 10.827 75.723 1.41L73.36 2.953c6.158 9.416 5.02 24.532 3.92 39.15-.868 11.49-1.68 22.425 1.302 29.71-1.018-.623-1.94-1.46-2.805-2.85l-1.2.75-1.412.034c.193 8.173 3.695 21.34 10.277 34.014-9.03.202-17.86 4.274-26.43 8.196-9.497 4.347-18.465 8.45-25.822 6.183l-.833 2.7c.046.014.09.024.137.036l-.14.463c7.364 2.274 12.417 10.753 17.77 19.732 4.84 8.117 9.837 16.496 17.17 21.767-13.21 6.667-24.145 15.804-29.147 22.6l1.138.838.552 1.3c1.505-.643 2.742-.8 3.932-.728-6.62 4.257-12.225 13.682-18.106 23.593C16.18 223.05 8.446 236.083-2 240.27l1.05 2.622c10.448-4.19 25.047-.088 39.162 3.87 9.06 2.544 17.768 4.986 24.864 4.986 1.59 0 3.096-.134 4.512-.404-.81.872-1.816 1.61-3.344 2.186l.496 1.32-.244 1.392c2.444.433 5.502.672 8.987.672 5.956 0 13.15-.703 20.645-2.348-2.273 8.27-1.407 17.46-.556 26.387.99 10.394 1.924 20.214-2.633 26.418l2.274 1.674c.032-.04.052-.083.082-.118l.387.283c4.567-6.21 14.235-8.2 24.47-10.312 9.19-1.893 18.664-3.852 26.023-8.958 1.87 11.822 5.6 22.09 9.03 27.775l1.21-.73 1.41-.01c-.01-1.637.318-2.84.84-3.913 1.394 7.744 7.947 16.532 14.848 25.764 8.775 11.74 17.85 23.885 17.708 35.14l2.827.034c.138-11.252 9.515-23.16 18.583-34.678 7.128-9.054 13.902-17.677 15.493-25.388.493 1.087.795 2.3.74 3.933l1.41.048 1.193.76c3.698-5.802 7.427-15.857 9.475-27.353 7.826 5.182 17.833 6.674 27.528 8.107 10.33 1.525 20.087 2.967 25.02 8.877l2.17-1.81c-.032-.038-.067-.072-.098-.107l.37-.314c-4.938-5.917-4.557-15.78-4.155-26.222.33-8.673.666-17.594-1.817-25.513 7.842 1.804 15.407 2.574 21.617 2.574 3.48 0 6.54-.24 8.985-.672l-.246-1.39.495-1.322c-1.528-.575-2.53-1.314-3.342-2.186 1.416.27 2.92.404 4.512.404 7.096 0 15.805-2.442 24.862-4.984 14.12-3.962 28.712-8.06 39.165-3.872l1.05-2.623c-10.447-4.188-18.183-17.218-25.663-29.825zm-168.015-6.578c-20.285 0-36.787-15.437-36.787-34.414 0-18.976 16.502-34.414 36.787-34.414s36.785 15.437 36.785 34.413c0 18.977-16.5 34.414-36.785 34.414zm0-71.653c-21.844 0-39.614 16.706-39.614 37.24 0 20.53 17.77 37.238 39.613 37.238 21.842 0 39.612-16.707 39.612-37.24 0-20.532-17.77-37.238-39.612-37.238zm0 90.942c-31.63 0-57.36-24.092-57.36-53.705s25.73-53.703 57.36-53.703c31.626 0 57.357 24.09 57.357 53.704s-25.73 53.706-57.357 53.706zm0-110.236c-33.188 0-60.185 25.36-60.185 56.53s26.997 56.53 60.185 56.53c33.183 0 60.182-25.36 60.182-56.53s-27-56.53-60.182-56.53zM887.085 542.045c-12.407 3.476-24.127 6.766-31.02 3.622l-.08.175c-1.575-2.36-3.66-4.89-8.73-6.84l-1.016 2.635c4.893 1.884 6.465 4.322 7.985 6.68.8 1.24 1.632 2.5 2.866 3.618-7.027.533-16.976-.14-27.276-2.687-.115-.262-.22-.533-.342-.797l-.978.456c-12.66-3.32-25.64-9.51-34.185-19.772 4.416-2.492 8.53-7.026 12.136-12.728 7.467 5.806 15.16 7.665 22.75 7.665 6.88 0 13.675-1.51 20.124-2.945 9.195-2.048 17.884-3.986 25.135-1.08l.136-.34.234-.583.683-1.7.133-.342c-7.24-2.896-12.235-10.273-17.523-18.082-8.256-12.204-17.503-25.823-37.64-26.387a65.17 65.17 0 0 0 .162-4.437c0-4.74-.557-8.88-1.612-12.378 24.592-4.984 54.278 13.42 66.03 26.226-1.653-.04-3.12.297-4.545.642-2.733.658-5.552 1.34-10.392-.676l-1.084 2.61c2.84 1.18 5.115 1.568 7.06 1.568 1.488 0 2.777-.23 3.978-.498l-.062.18c7.165 2.487 13.375 12.956 19.958 24.04 5.94 10.015 12.05 20.278 19.714 26.55-9.878-.75-21.382 2.46-32.6 5.61zM831.64 600.34c-5.77-3.347-13.595-4.502-21.757-5.71-9.7-1.432-19.734-2.912-27.118-8.156l-.445.627c1.684-10.754 1.832-22.578-.89-33.308 3.015 2.18 6.53 3.48 9.706 4.655 4.074 1.507 7.928 2.93 9.83 5.733l.148-.1 2.336-1.588c-1.905-2.802-1.795-6.905-1.674-11.246.102-3.895.22-8.268-1.207-12.353 8.005 6.08 17.656 10.134 27.128 12.643 2.96 7.825 2.605 17.158 2.257 26.207-.32 8.32-.62 16.286 1.684 22.598zm-52.012-52.33a48.164 48.164 0 0 0-2.21-5.032c-.238-1-.394-2.097-.488-3.275.02-.038.042-.073.06-.106 1.903-3.506 2.37-7.326 1.404-11.42 2.677 2.048 5.516 3.08 8.487 3.08h.003c.806 0 1.603-.102 2.398-.246 10.083 4.715 9.875 12.567 9.67 20.16-.074 2.712-.126 5.33.257 7.744-2.1-1.252-4.548-2.176-7.092-3.117-4.728-1.75-9.556-3.556-12.487-7.788zm-7.586 63.623c-.56-1.558-1.4-2.8-2.236-4.01-1.596-2.31-3.245-4.7-3.11-9.938l-2.825-.07c-.138 5.426 1.398 8.322 2.976 10.683l-.19.006c.26 7.577-7.27 17.145-15.242 27.27-7.207 9.153-14.58 18.544-17.67 27.95-2.857-9.486-9.997-19.058-16.967-28.39-7.717-10.324-15.003-20.073-14.552-27.638l-.19-.012c1.635-2.322 3.244-5.176 3.238-10.607l-2.825.002c.006 5.24-1.705 7.585-3.356 9.854-.87 1.193-1.746 2.42-2.346 3.974-6.745-14.18-13.107-44.06-1.97-65.57 4.18 3.554 9.97 6.083 16.307 7.768-3.845 16.148 4.25 28.403 11.613 39.462 5.22 7.846 10.152 15.257 10.055 23.064l2.828.035v-.002l.364.004c.096-7.8 5.18-15.117 10.563-22.86 7.79-11.203 16.415-23.63 12.3-40.498 6.278-1.97 11.824-4.848 15.502-8.824.18.335.377.662.548 1.003.503 1.835 1.205 3.43 2.08 4.8 7.675 20.957 1.854 48.92-4.893 62.543zm-85.313-26.87c-7.01 5.417-16.733 7.428-26.146 9.366-8.153 1.68-15.96 3.292-21.536 7.04 1.867-6.404 1.115-14.273.335-22.486-.88-9.224-1.778-18.744.928-26.87 9.46-2.397 19.168-6.332 27.298-12.265-1.102 3.858-.966 7.926-.83 11.582.163 4.376.315 8.508-1.573 11.31l.15.1c-.002 0-.002.002-.002.002l2.344 1.578c1.89-2.804 5.785-4.193 9.905-5.662 3.683-1.316 7.815-2.79 11.094-5.586-3.056 10.305-3.273 21.563-1.967 31.89zm-48.542-35.403c-.02.052-.036.102-.054.15-9.9 2.328-19.39 2.94-26.164 2.425 1.234-1.117 2.067-2.377 2.864-3.618 1.522-2.358 3.096-4.796 7.986-6.68L621.804 539c-5.07 1.952-7.155 4.48-8.727 6.842l-.08-.175c-6.896 3.144-18.616-.146-31.023-3.622-11.215-3.15-22.72-6.362-32.6-5.61 7.668-6.27 13.774-16.534 19.72-26.55 6.576-11.083 12.788-21.552 19.953-24.04l-.062-.18c1.2.27 2.492.5 3.978.5 1.943 0 4.222-.388 7.062-1.57l-1.083-2.61c-4.844 2.016-7.663 1.335-10.396.677-1.426-.345-2.89-.68-4.545-.64 11.474-12.498 40.023-30.328 64.255-26.546-1.382 4.65-1.925 10.6-1.557 17.252-18.842 1.336-27.765 14.456-35.756 26.27-5.286 7.81-10.278 15.19-17.523 18.082l.137.34-.005.002 1.052 2.623c7.246-2.902 15.934-.968 25.137 1.08 6.448 1.434 13.24 2.946 20.122 2.946 7.155 0 14.412-1.66 21.48-6.72 4.067 6.15 8.454 10.383 12.85 12.446-9.045 10.44-22.73 16.548-35.78 19.654l-.224-.09zm-44.636-111.737c-4.267-7.153-8.354-14-13.73-18.04 6.67-.334 13.862-3.62 21.368-7.054 8.784-4.025 17.84-8.164 26.78-7.937 4.787 8.54 10.978 16.66 18.53 22.63-4.097-.015-8.087 1.334-11.66 2.556-4.21 1.435-8.183 2.795-11.372 1.73l-.898 2.678h.002l-.058.18c3.19 1.07 5.525 4.554 8.003 8.25 2.212 3.303 4.708 7.004 8.264 9.47-9.365.434-18.866 3.292-27.55 7.325-7.552-4.81-12.702-13.438-17.678-21.79zm25.78-65.93c1.33.978 2.722 1.543 4.09 2.078 2.612 1.03 5.313 2.09 8.127 6.514l2.38-1.51c-2.91-4.585-5.8-6.13-8.426-7.21l.154-.113c-4.443-6.142-3.53-18.28-2.563-31.134.876-11.614 1.757-23.522-.924-33.056 7.66 6.278 18.926 10.244 29.92 14.1 12.162 4.263 23.65 8.29 27.494 14.82l.165-.096c-.062 2.838.192 6.106 3.227 10.61l2.342-1.58c-2.928-4.346-2.815-7.246-2.71-10.048.057-1.478.097-2.987-.272-4.61 11.887 7.044 30.31 24.337 36.448 44.79.046 1.905.48 3.93 1.43 6.094.092.547.146 1.1.213 1.655-5.08.07-11.095 1.73-17.378 4.46-5.594-16.332-19.473-22.118-32.018-27.3-8.712-3.6-16.937-6.996-21.213-13.533l-.303.2-2.363 1.547c4.27 6.525 4.126 15.43 3.98 24.863-.226 14.23-.46 30.074 14.117 41.967-4.473 5.22-7.65 10.403-8.75 14.97-21.876-10.904-34.95-41.723-37.17-58.477zm100.71-48.857c5.576-6.18 10.908-12.106 13.185-18.426 2.288 6.268 7.55 12.17 13.045 18.322 6.38 7.148 12.96 14.54 15.42 23.04-6.063 6.835-11.602 14.935-15.14 23.752-1.396-3.723-3.977-6.943-6.305-9.843-2.835-3.53-5.515-6.865-5.515-10.208H731.703c0 3.347-2.69 6.666-5.545 10.182-2.376 2.93-5.024 6.19-6.41 9.976-3.54-8.866-9.104-17.008-15.195-23.872 2.467-8.47 9.08-15.817 15.49-22.922zm63.88 7.617c-.37 1.626-.33 3.135-.272 4.613.104 2.8.217 5.702-2.712 10.05l2.344 1.577c3.035-4.503 3.29-7.774 3.228-10.61l.167.097c3.845-6.53 15.332-10.557 27.494-14.82 10.993-3.856 22.257-7.822 29.918-14.1-2.68 9.534-1.798 21.444-.926 33.056.968 12.85 1.882 24.99-2.56 31.135l.15.114c-2.624 1.078-5.513 2.625-8.424 7.21l2.384 1.51c2.812-4.425 5.513-5.483 8.125-6.513 1.368-.534 2.76-1.1 4.093-2.077-2.196 16.554-14.985 46.842-36.39 58.086-1.215-4.604-4.46-9.798-9.007-15.023 14.037-11.84 13.812-27.467 13.592-41.52-.148-9.434-.29-18.342 3.982-24.868l-2.365-1.548s0 .002-.002.002l-.302-.202c-4.276 6.537-12.5 9.934-21.21 13.532-12.456 5.148-26.23 10.89-31.9 26.965-6.146-2.593-12.014-4.142-16.96-4.142-.196 0-.375.027-.57.03.045-.363.08-.727.137-1.087 1.18-2.516 1.66-4.854 1.648-7.036 6.246-20.293 24.524-37.426 36.338-44.43zm22.166 112.468c3.813-2.607 4.958-6.01 4.996-9.096 7.378-7.79 14.333-4.75 21.682-1.503 2.702 1.19 5.316 2.343 7.867 2.863-1.964 1.707-3.675 3.978-5.44 6.343-4.534 6.085-8.854 11.835-17.93 9.897-2.476-4.744-6.252-7.68-11.175-8.502zm14.143 32.535c18.78.456 27.31 12.957 35.55 25.125 3.918 5.79 7.686 11.344 12.405 15.24-6.11-.42-12.66 1.027-19.48 2.547-13.568 3.02-27.53 6.108-40.79-4.393 6.42-11.158 10.975-25.89 12.316-38.52zm-7.93-102.178c.222 14.006.426 28.412-12.658 39.383-8.878-9.505-21.667-18.81-33.73-24.398 5.2-15.037 17.953-20.358 30.393-25.496 6.458-2.67 12.657-5.238 17.416-9.087-1.627 5.9-1.53 12.61-1.42 19.597zm-89.442 7.047a53.676 53.676 0 0 0-1.262-5.32c-.077-5.124 3.267-9.27 6.756-13.57 1.884-2.32 3.693-4.572 4.863-6.92 1.164 2.35 2.956 4.605 4.828 6.937 3.376 4.206 6.613 8.265 6.726 13.203a53.24 53.24 0 0 0-1.46 6.185 21.7 21.7 0 0 1-1.524 2.675c-3.885.972-6.668 3.27-8.21 6.79-1.646-3.757-4.718-6.113-9.028-6.956a20.983 20.983 0 0 1-1.69-3.023zm-70.32-26.643c4.76 3.848 10.958 6.417 17.416 9.086 12.542 5.182 25.406 10.54 30.52 25.862-12.015 5.706-24.64 15.008-33.35 24.46-13.608-11.024-13.387-25.624-13.167-39.81.11-6.987.21-13.7-1.42-19.597zm6.645 160.188c.212.37.428.716.64 1.074-12.865 9.297-26.348 6.343-39.47 3.425-6.822-1.52-13.37-2.967-19.48-2.546 4.72-3.896 8.49-9.45 12.408-15.24 7.954-11.747 16.17-23.803 33.622-25.04 1.1 11.96 5.042 25.806 12.28 38.328zm-3.11-79.7c.12 2.995 1.32 6.242 4.994 8.753-4.618.77-8.31 3.38-10.778 7.662-.253.435-.488.9-.71 1.38-8.748.918-12.643-4.838-16.717-10.92-1.6-2.384-3.154-4.674-4.976-6.46 2.53-.323 5.153-1.204 7.865-2.13 6.758-2.31 13.723-4.657 20.32 1.717zM669.6 551.027c-.275-7.478-.533-15.193 8.854-19.915.605.087 1.21.147 1.81.147h.005c2.974-.002 5.81-1.035 8.49-3.083-.967 4.097-.503 7.917 1.402 11.423.414.764.888 1.494 1.417 2.192-1.418 9.167-8.267 11.634-14.925 14.01-2.604.928-5.113 1.84-7.245 3.1.375-2.447.294-5.112.19-7.874zm74.588 39.972c-3.99 5.74-7.813 11.254-9.753 17.058-1.805-5.846-5.515-11.437-9.387-17.254-7.313-10.987-14.783-22.29-11.225-37.228 6.574 1.476 13.538 2.113 19.754 2.113 7.086 0 15.145-.827 22.49-2.78 3.734 15.547-4.158 26.98-11.88 38.09zm42.695-62.568c-4.39.002-8.554-2.98-12.374-8.862l-2.372 1.538c4.222 6.498 5.017 12.266 2.37 17.142-4.743 8.74-21.196 14.616-40.93 14.616-19.74 0-36.188-5.875-40.933-14.616-2.65-4.876-1.853-10.644 2.37-17.142l-2.37-1.538c-3.822 5.88-7.983 8.862-12.376 8.862h-.005c-6.07 0-12.687-5.673-18.638-15.97-10.36-17.94-16.56-47.177-8.894-60.467 3.235-5.598 8.725-7.584 16.213-5.9l.618-2.756c-7.65-1.72-11.218-5.394-10.606-10.92 1.884-16.99 41.177-46.612 61.824-46.612 7.66 0 11.382 3.987 11.382 12.185h2.827c0-8.198 3.723-12.185 11.378-12.185 20.65 0 59.94 29.622 61.828 46.61.612 5.528-2.956 9.2-10.608 10.922l.618 2.755c1.732-.39 3.374-.585 4.886-.585 12.81 0 14.72 14.204 14.72 22.668.002 12.15-3.774 27.37-9.86 39.718-6.426 13.053-14.105 20.537-21.07 20.537zm77.305-113.313c7.417 3.635 14.527 7.113 21.186 7.62-5.038 3.68-8.485 9.83-12.082 16.247-4.264 7.61-8.677 15.462-16.12 20.135-8.872-4.043-18.565-6.837-28.075-7.064 3.465-2.294 6.054-5.742 8.363-8.84 2.694-3.61 5.24-7.02 8.477-7.88l-.052-.19h.002l-.73-2.734c-3.234.862-7.13-.858-11.25-2.677-3.873-1.71-8.247-3.64-12.826-3.616 6.417-5.4 11.808-12.323 16.138-19.668v.02h.402c8.923 0 17.89 4.392 26.568 8.645zm38.21 93.328c-5.884-9.913-11.488-19.338-18.11-23.593 1.194-.073 2.43.083 3.936.725l.554-1.3 1.137-.838c-5.082-6.902-16.292-16.216-29.778-22.91 7.19-5.14 11.652-13.08 15.62-20.165 4.513-8.053 8.772-15.66 16.073-17.702l-.127-.466c.046-.015.093-.023.14-.036l-.763-2.72c-7.41 2.08-16.27-2.262-25.647-6.86-8.604-4.217-17.462-8.513-26.64-8.9 7.24-13.247 11.097-27.345 11.303-35.932l-1.413-.035-1.197-.75c-.866 1.39-1.79 2.226-2.81 2.85 2.983-7.284 2.17-18.218 1.303-29.71-1.1-14.617-2.24-29.733 3.92-39.15l-2.364-1.546c-6.16 9.42-20.466 14.435-34.3 19.284-10.877 3.817-21.22 7.454-26.694 13.1.162-1.18.56-2.36 1.484-3.715l-1.164-.797-.6-1.28c-5.864 2.735-14.4 8.937-22.372 17.372-2.93-8.408-9.31-15.573-15.51-22.518-6.957-7.794-13.523-15.154-13.523-22.852h-2.825c0 .048.007.096.007.144h-.486c0 7.708-6.612 15.038-13.61 22.8-6.23 6.907-12.644 14.033-15.587 22.416-7.97-8.43-16.498-14.63-22.36-17.362l-.6 1.28-1.166.797c.925 1.354 1.325 2.534 1.49 3.716-5.476-5.646-15.82-9.283-26.695-13.097-13.834-4.85-28.144-9.866-34.302-19.284l-2.363 1.544c6.158 9.416 5.02 24.532 3.92 39.15-.868 11.49-1.68 22.425 1.302 29.71-1.018-.623-1.94-1.46-2.805-2.85l-1.2.75-1.412.034c.193 8.173 3.695 21.34 10.277 34.014-9.03.202-17.86 4.274-26.43 8.196-9.497 4.347-18.465 8.45-25.822 6.183l-.833 2.7c.046.014.09.024.137.036l-.14.463c7.364 2.274 12.417 10.753 17.77 19.732 4.84 8.117 9.837 16.496 17.17 21.767-13.21 6.667-24.145 15.804-29.147 22.6l1.138.838.552 1.3c1.505-.643 2.742-.8 3.932-.728-6.62 4.257-12.225 13.682-18.106 23.593-7.484 12.607-15.218 25.64-25.664 29.826l1.05 2.622c10.448-4.19 25.047-.088 39.162 3.87 9.06 2.544 17.768 4.986 24.864 4.986 1.59 0 3.096-.134 4.512-.404-.81.872-1.816 1.61-3.344 2.186l.496 1.32-.244 1.392c2.444.433 5.502.672 8.987.672 5.956 0 13.15-.703 20.645-2.348-2.273 8.27-1.407 17.46-.556 26.387.99 10.394 1.924 20.214-2.633 26.418l2.274 1.674c.032-.04.052-.083.082-.118l.387.283c4.567-6.21 14.235-8.2 24.47-10.312 9.19-1.893 18.664-3.852 26.023-8.958 1.87 11.822 5.6 22.09 9.03 27.775l1.21-.73 1.41-.01c-.01-1.637.318-2.84.84-3.913 1.394 7.744 7.947 16.532 14.848 25.764 8.775 11.74 17.85 23.885 17.708 35.14l2.827.034c.138-11.252 9.515-23.16 18.583-34.678 7.128-9.054 13.902-17.677 15.493-25.388.493 1.087.795 2.3.74 3.933l1.41.048 1.193.76c3.698-5.802 7.427-15.857 9.475-27.353 7.826 5.182 17.833 6.674 27.528 8.107 10.33 1.525 20.087 2.967 25.02 8.877l2.17-1.81c-.032-.038-.067-.072-.098-.107l.37-.314c-4.938-5.917-4.557-15.78-4.155-26.222.33-8.673.666-17.594-1.817-25.513 7.842 1.804 15.407 2.574 21.617 2.574 3.48 0 6.54-.24 8.985-.672l-.246-1.39.495-1.322c-1.528-.575-2.53-1.314-3.342-2.186 1.416.27 2.92.404 4.512.404 7.096 0 15.805-2.442 24.862-4.984 14.12-3.962 28.712-8.06 39.165-3.872l1.05-2.623c-10.447-4.188-18.183-17.218-25.663-29.825zm-168.015-6.578c-20.285 0-36.787-15.437-36.787-34.414 0-18.976 16.502-34.414 36.787-34.414s36.785 15.437 36.785 34.413c0 18.977-16.5 34.414-36.785 34.414zm0-71.653c-21.844 0-39.614 16.706-39.614 37.24 0 20.53 17.77 37.238 39.613 37.238 21.842 0 39.612-16.707 39.612-37.24 0-20.532-17.77-37.238-39.612-37.238zm0 90.942c-31.63 0-57.36-24.092-57.36-53.705s25.73-53.703 57.36-53.703c31.626 0 57.357 24.09 57.357 53.704s-25.73 53.706-57.357 53.706zm0-110.236c-33.188 0-60.185 25.36-60.185 56.53s26.997 56.53 60.185 56.53c33.183 0 60.182-25.36 60.182-56.53s-27-56.53-60.182-56.53zM1400.085 246.045c-12.407 3.476-24.127 6.766-31.02 3.622l-.08.175c-1.575-2.36-3.66-4.89-8.73-6.84l-1.016 2.635c4.893 1.884 6.465 4.322 7.985 6.68.8 1.24 1.632 2.5 2.866 3.618-7.027.533-16.976-.14-27.276-2.687-.115-.262-.22-.533-.342-.797l-.978.456c-12.66-3.32-25.64-9.51-34.185-19.772 4.416-2.492 8.53-7.026 12.136-12.728 7.467 5.806 15.16 7.665 22.75 7.665 6.88 0 13.675-1.51 20.124-2.945 9.195-2.048 17.884-3.986 25.135-1.08l.136-.34.234-.583.683-1.7.133-.342c-7.24-2.896-12.235-10.273-17.523-18.082-8.256-12.204-17.503-25.823-37.64-26.387.104-1.518.162-3.003.162-4.437 0-4.74-.557-8.88-1.612-12.378 24.592-4.984 54.278 13.42 66.03 26.226-1.653-.04-3.12.297-4.545.642-2.733.658-5.552 1.34-10.392-.676l-1.084 2.61c2.84 1.18 5.115 1.568 7.06 1.568 1.488 0 2.777-.23 3.978-.498l-.062.18c7.165 2.487 13.375 12.956 19.958 24.04 5.94 10.015 12.05 20.278 19.714 26.55-9.878-.75-21.382 2.46-32.6 5.61zm-55.446 58.296c-5.77-3.347-13.595-4.502-21.757-5.71-9.7-1.432-19.734-2.912-27.118-8.156l-.445.627c1.684-10.754 1.832-22.578-.89-33.308 3.015 2.18 6.53 3.48 9.706 4.655 4.074 1.507 7.928 2.93 9.83 5.733l.148-.1 2.336-1.588c-1.905-2.802-1.795-6.905-1.674-11.246.102-3.895.22-8.268-1.207-12.353 8.005 6.08 17.656 10.134 27.13 12.643 2.957 7.825 2.603 17.158 2.255 26.207-.32 8.32-.62 16.286 1.684 22.598zm-52.012-52.33a48.164 48.164 0 0 0-2.21-5.032c-.238-1-.394-2.097-.488-3.275.02-.038.042-.073.06-.106 1.903-3.506 2.37-7.326 1.404-11.42 2.677 2.048 5.516 3.08 8.487 3.08h.003c.806 0 1.603-.102 2.398-.246 10.083 4.715 9.875 12.567 9.67 20.16-.074 2.712-.126 5.33.257 7.744-2.1-1.252-4.548-2.176-7.092-3.117-4.728-1.75-9.556-3.556-12.487-7.788zm-7.586 63.623c-.56-1.558-1.4-2.8-2.236-4.01-1.596-2.31-3.245-4.7-3.11-9.938l-2.825-.07c-.138 5.426 1.398 8.322 2.976 10.683l-.19.006c.26 7.577-7.27 17.145-15.242 27.27-7.207 9.153-14.58 18.544-17.67 27.95-2.857-9.486-9.997-19.058-16.967-28.39-7.717-10.324-15.003-20.073-14.552-27.638l-.19-.012c1.635-2.322 3.244-5.176 3.238-10.607l-2.825.002c.006 5.24-1.705 7.585-3.356 9.854-.87 1.193-1.746 2.42-2.346 3.974-6.745-14.18-13.107-44.06-1.97-65.57 4.18 3.554 9.97 6.083 16.307 7.768-3.845 16.148 4.25 28.403 11.613 39.462 5.22 7.846 10.152 15.257 10.055 23.064l2.828.035v-.002l.364.004c.096-7.8 5.18-15.117 10.563-22.86 7.79-11.203 16.415-23.63 12.3-40.498 6.278-1.97 11.824-4.848 15.502-8.824.18.335.377.662.548 1.003.503 1.835 1.205 3.43 2.08 4.8 7.675 20.957 1.854 48.92-4.893 62.543zm-85.313-26.87c-7.01 5.417-16.733 7.428-26.146 9.366-8.153 1.68-15.96 3.292-21.536 7.04 1.867-6.404 1.115-14.273.335-22.486-.88-9.224-1.778-18.744.928-26.87 9.46-2.397 19.168-6.332 27.298-12.265-1.102 3.858-.966 7.926-.83 11.582.163 4.376.315 8.508-1.573 11.31l.15.1c-.002 0-.002.002-.002.002l2.344 1.578c1.89-2.804 5.785-4.193 9.905-5.662 3.683-1.316 7.815-2.79 11.094-5.586-3.056 10.305-3.273 21.563-1.967 31.89zm-48.542-35.403c-.02.052-.036.102-.054.15-9.9 2.328-19.39 2.94-26.164 2.425 1.234-1.117 2.067-2.377 2.864-3.618 1.522-2.358 3.096-4.796 7.986-6.68l-1.016-2.636c-5.07 1.952-7.155 4.48-8.727 6.842l-.08-.175c-6.896 3.144-18.616-.146-31.023-3.622-11.215-3.15-22.72-6.362-32.6-5.61 7.668-6.27 13.774-16.534 19.72-26.55 6.576-11.083 12.788-21.552 19.953-24.04l-.062-.18c1.2.27 2.492.5 3.978.5 1.943 0 4.222-.388 7.062-1.57l-1.083-2.61c-4.844 2.016-7.663 1.335-10.396.677-1.426-.345-2.89-.68-4.545-.64 11.474-12.498 40.023-30.328 64.255-26.546-1.382 4.65-1.925 10.6-1.557 17.252-18.842 1.336-27.765 14.456-35.756 26.27-5.286 7.81-10.278 15.19-17.523 18.082l.137.34-.005.002 1.052 2.623c7.246-2.902 15.934-.968 25.137 1.08 6.448 1.434 13.24 2.946 20.122 2.946 7.155 0 14.412-1.66 21.48-6.72 4.067 6.15 8.454 10.383 12.85 12.446-9.045 10.44-22.73 16.548-35.78 19.654l-.224-.09zm-44.636-111.737c-4.267-7.153-8.354-14-13.73-18.04 6.67-.334 13.862-3.62 21.368-7.054 8.784-4.025 17.84-8.164 26.78-7.937 4.787 8.54 10.978 16.66 18.53 22.63-4.097-.015-8.087 1.334-11.66 2.556-4.21 1.435-8.183 2.795-11.372 1.73l-.898 2.678h.002l-.058.18c3.19 1.07 5.525 4.554 8.003 8.25 2.212 3.303 4.708 7.004 8.264 9.47-9.365.434-18.866 3.292-27.55 7.325-7.552-4.81-12.702-13.438-17.678-21.79zm25.78-65.93c1.33.978 2.722 1.543 4.09 2.078 2.612 1.03 5.313 2.09 8.127 6.514l2.38-1.51c-2.91-4.585-5.8-6.13-8.426-7.21l.154-.113c-4.443-6.142-3.53-18.28-2.563-31.134.876-11.614 1.757-23.522-.924-33.056 7.66 6.278 18.926 10.244 29.92 14.1 12.162 4.263 23.65 8.29 27.494 14.82l.165-.096c-.062 2.838.192 6.106 3.227 10.61l2.342-1.58c-2.928-4.346-2.815-7.246-2.71-10.048.057-1.478.097-2.987-.272-4.61 11.887 7.044 30.31 24.337 36.448 44.79.046 1.905.48 3.93 1.43 6.094.092.547.146 1.1.213 1.655-5.08.07-11.095 1.73-17.378 4.46-5.594-16.332-19.473-22.118-32.018-27.3-8.712-3.6-16.937-6.996-21.213-13.533l-.303.2-2.363 1.547c4.27 6.525 4.126 15.43 3.98 24.863-.226 14.23-.46 30.074 14.117 41.967-4.473 5.22-7.65 10.403-8.75 14.97-21.876-10.904-34.95-41.723-37.17-58.477zm100.71-48.857c5.576-6.18 10.908-12.106 13.185-18.426 2.288 6.268 7.55 12.17 13.045 18.322 6.38 7.148 12.96 14.54 15.42 23.04-6.063 6.835-11.602 14.935-15.14 23.752-1.396-3.723-3.977-6.943-6.305-9.843-2.835-3.53-5.515-6.865-5.515-10.208H1244.703c0 3.347-2.69 6.666-5.545 10.182-2.376 2.93-5.024 6.19-6.41 9.976-3.54-8.866-9.104-17.008-15.195-23.872 2.467-8.47 9.08-15.817 15.49-22.922zm63.88 7.617c-.37 1.626-.33 3.135-.272 4.613.104 2.8.217 5.702-2.712 10.05l2.344 1.577c3.035-4.503 3.29-7.774 3.228-10.61l.167.097c3.845-6.53 15.332-10.557 27.494-14.82 10.993-3.856 22.257-7.822 29.918-14.1-2.68 9.534-1.798 21.444-.926 33.056.968 12.85 1.882 24.99-2.56 31.135l.15.114c-2.624 1.078-5.513 2.625-8.424 7.21l2.384 1.51c2.813-4.425 5.513-5.483 8.125-6.513 1.368-.534 2.76-1.1 4.093-2.077-2.196 16.554-14.985 46.842-36.39 58.086-1.215-4.604-4.46-9.798-9.007-15.023 14.037-11.84 13.812-27.467 13.592-41.52-.148-9.434-.29-18.342 3.982-24.868l-2.365-1.548s0 .002-.002.002l-.302-.202c-4.276 6.537-12.5 9.934-21.21 13.532-12.456 5.148-26.23 10.89-31.9 26.965-6.146-2.593-12.014-4.142-16.96-4.142-.196 0-.375.027-.57.03.045-.363.08-.727.137-1.087 1.18-2.516 1.66-4.854 1.648-7.036 6.246-20.293 24.524-37.426 36.338-44.43zm22.166 112.468c3.813-2.607 4.958-6.01 4.996-9.096 7.378-7.79 14.333-4.75 21.682-1.503 2.702 1.19 5.316 2.343 7.867 2.863-1.964 1.707-3.675 3.978-5.44 6.343-4.534 6.085-8.854 11.835-17.93 9.897-2.476-4.744-6.252-7.68-11.175-8.502zm14.143 32.535c18.78.456 27.31 12.957 35.55 25.125 3.918 5.79 7.686 11.344 12.405 15.24-6.11-.42-12.66 1.027-19.48 2.547-13.568 3.02-27.53 6.108-40.79-4.393 6.42-11.158 10.975-25.89 12.316-38.52zm-7.93-102.178c.222 14.006.426 28.412-12.658 39.383-8.878-9.505-21.667-18.81-33.73-24.398 5.2-15.037 17.953-20.358 30.393-25.496 6.458-2.67 12.657-5.238 17.416-9.087-1.627 5.9-1.53 12.61-1.42 19.597zm-89.442 7.047a53.677 53.677 0 0 0-1.262-5.32c-.077-5.124 3.267-9.27 6.756-13.57 1.884-2.32 3.693-4.572 4.863-6.92 1.164 2.35 2.956 4.605 4.828 6.937 3.376 4.206 6.613 8.265 6.726 13.203a53.24 53.24 0 0 0-1.46 6.185 21.7 21.7 0 0 1-1.524 2.675c-3.885.972-6.668 3.27-8.21 6.79-1.646-3.757-4.718-6.113-9.028-6.956a20.983 20.983 0 0 1-1.69-3.023zm-70.32-26.643c4.76 3.848 10.958 6.417 17.416 9.086 12.542 5.182 25.406 10.54 30.52 25.862-12.015 5.706-24.64 15.008-33.35 24.46-13.608-11.024-13.387-25.624-13.167-39.81.11-6.987.21-13.7-1.42-19.597zm6.645 160.188c.212.37.428.716.64 1.074-12.865 9.297-26.348 6.343-39.47 3.425-6.822-1.52-13.37-2.967-19.48-2.546 4.72-3.896 8.49-9.45 12.408-15.24 7.954-11.747 16.17-23.803 33.622-25.04 1.1 11.96 5.042 25.806 12.28 38.328zm-3.11-79.7c.12 2.995 1.32 6.242 4.994 8.753-4.618.77-8.31 3.38-10.778 7.662-.253.435-.488.9-.71 1.38-8.748.918-12.643-4.838-16.717-10.92-1.6-2.384-3.154-4.674-4.976-6.46 2.53-.323 5.153-1.204 7.865-2.13 6.758-2.31 13.723-4.657 20.32 1.717zm13.527 116.858c-.275-7.478-.533-15.193 8.854-19.915.605.087 1.21.147 1.81.147h.005c2.974-.002 5.81-1.035 8.49-3.083-.967 4.097-.503 7.917 1.402 11.423.414.764.89 1.494 1.417 2.192-1.418 9.167-8.267 11.634-14.925 14.01-2.604.928-5.113 1.84-7.245 3.1.375-2.447.294-5.112.19-7.874zm74.588 39.972c-3.99 5.74-7.813 11.254-9.753 17.058-1.805-5.846-5.515-11.437-9.387-17.254-7.313-10.987-14.783-22.29-11.225-37.228 6.574 1.476 13.538 2.113 19.754 2.113 7.086 0 15.145-.827 22.49-2.78 3.734 15.547-4.158 26.98-11.88 38.09zm42.695-62.568c-4.39.002-8.554-2.98-12.374-8.862l-2.372 1.538c4.222 6.498 5.017 12.266 2.37 17.142-4.743 8.74-21.196 14.616-40.93 14.616-19.74 0-36.188-5.875-40.933-14.616-2.65-4.876-1.853-10.644 2.37-17.142l-2.37-1.538c-3.822 5.88-7.983 8.862-12.376 8.862h-.005c-6.07 0-12.687-5.673-18.638-15.97-10.36-17.94-16.56-47.177-8.894-60.467 3.235-5.598 8.725-7.584 16.213-5.9l.618-2.756c-7.65-1.72-11.218-5.394-10.606-10.92 1.884-16.99 41.177-46.612 61.824-46.612 7.66 0 11.382 3.987 11.382 12.185h2.827c0-8.198 3.723-12.185 11.378-12.185 20.65 0 59.94 29.622 61.828 46.61.612 5.528-2.956 9.2-10.608 10.922l.618 2.755c1.732-.39 3.374-.585 4.886-.585 12.81 0 14.72 14.204 14.72 22.668.002 12.15-3.774 27.37-9.86 39.718-6.426 13.053-14.105 20.537-21.07 20.537zm77.305-113.313c7.417 3.635 14.527 7.113 21.186 7.62-5.038 3.68-8.485 9.83-12.082 16.247-4.264 7.61-8.677 15.462-16.12 20.135-8.872-4.043-18.565-6.837-28.075-7.064 3.465-2.294 6.054-5.742 8.363-8.84 2.694-3.61 5.24-7.02 8.477-7.88l-.052-.19h.002l-.73-2.734c-3.234.862-7.13-.858-11.25-2.677-3.873-1.71-8.247-3.64-12.826-3.616 6.417-5.4 11.808-12.323 16.138-19.668v.02h.402c8.923 0 17.89 4.392 26.568 8.645zm38.21 93.328c-5.884-9.913-11.488-19.338-18.11-23.593 1.194-.073 2.43.083 3.936.725l.554-1.3 1.137-.838c-5.082-6.902-16.292-16.216-29.778-22.91 7.19-5.14 11.652-13.08 15.62-20.165 4.513-8.053 8.772-15.66 16.073-17.702l-.127-.466c.046-.015.093-.023.14-.036l-.763-2.72c-7.41 2.08-16.27-2.262-25.647-6.86-8.604-4.217-17.462-8.513-26.64-8.9 7.24-13.247 11.097-27.345 11.303-35.932l-1.413-.035-1.197-.75c-.866 1.39-1.79 2.226-2.81 2.85 2.983-7.284 2.17-18.218 1.303-29.71-1.1-14.617-2.24-29.733 3.92-39.15l-2.364-1.546c-6.16 9.42-20.466 14.435-34.3 19.284-10.877 3.817-21.22 7.454-26.694 13.1.162-1.18.56-2.36 1.484-3.715l-1.164-.797-.6-1.28c-5.864 2.735-14.4 8.937-22.372 17.372-2.93-8.408-9.31-15.573-15.51-22.518-6.957-7.794-13.523-15.154-13.523-22.852h-2.825c0 .048.007.096.007.144h-.486c0 7.708-6.612 15.038-13.61 22.8-6.23 6.907-12.644 14.033-15.587 22.416-7.97-8.43-16.498-14.63-22.36-17.362l-.6 1.28-1.166.797c.925 1.354 1.325 2.534 1.49 3.716-5.476-5.646-15.82-9.283-26.695-13.097-13.834-4.85-28.144-9.866-34.302-19.284l-2.363 1.544c6.158 9.416 5.02 24.532 3.92 39.15-.868 11.49-1.68 22.425 1.302 29.71-1.018-.623-1.94-1.46-2.805-2.85l-1.2.75-1.412.034c.193 8.173 3.695 21.34 10.277 34.014-9.03.202-17.86 4.274-26.43 8.196-9.497 4.347-18.465 8.45-25.822 6.183l-.833 2.7c.046.014.09.024.137.036l-.14.463c7.364 2.274 12.417 10.753 17.77 19.732 4.84 8.117 9.837 16.496 17.17 21.767-13.21 6.667-24.145 15.804-29.147 22.6l1.138.838.552 1.3c1.505-.643 2.742-.8 3.932-.728-6.62 4.257-12.225 13.682-18.106 23.593-7.484 12.607-15.218 25.64-25.664 29.826l1.05 2.622c10.448-4.19 25.047-.088 39.162 3.87 9.06 2.544 17.768 4.986 24.864 4.986 1.59 0 3.096-.134 4.512-.404-.81.872-1.816 1.61-3.344 2.186l.496 1.32-.244 1.392c2.444.433 5.502.672 8.987.672 5.956 0 13.15-.703 20.645-2.348-2.273 8.27-1.407 17.46-.556 26.387.99 10.394 1.924 20.214-2.633 26.418l2.274 1.674c.032-.04.052-.083.082-.118l.387.283c4.567-6.21 14.235-8.2 24.47-10.312 9.19-1.893 18.664-3.852 26.023-8.958 1.87 11.822 5.6 22.09 9.03 27.775l1.21-.73 1.41-.01c-.01-1.637.318-2.84.84-3.913 1.394 7.744 7.947 16.532 14.848 25.764 8.775 11.74 17.85 23.885 17.708 35.14l2.827.034c.138-11.252 9.515-23.16 18.583-34.678 7.128-9.054 13.902-17.677 15.493-25.388.493 1.087.795 2.3.74 3.933l1.41.048 1.193.76c3.698-5.802 7.427-15.857 9.475-27.353 7.826 5.182 17.833 6.674 27.528 8.107 10.33 1.525 20.087 2.967 25.02 8.877l2.17-1.81c-.032-.038-.067-.072-.098-.107l.37-.314c-4.938-5.917-4.557-15.78-4.155-26.222.33-8.673.666-17.594-1.817-25.513 7.842 1.804 15.407 2.574 21.617 2.574 3.48 0 6.54-.24 8.985-.672l-.246-1.39.495-1.322c-1.528-.575-2.53-1.314-3.342-2.186 1.416.27 2.92.404 4.512.404 7.096 0 15.805-2.442 24.862-4.984 14.12-3.962 28.712-8.06 39.165-3.872l1.05-2.623c-10.447-4.188-18.183-17.218-25.663-29.825zm-168.015-6.578c-20.285 0-36.787-15.437-36.787-34.414 0-18.976 16.502-34.414 36.787-34.414s36.785 15.437 36.785 34.413c0 18.977-16.5 34.414-36.785 34.414zm0-71.653c-21.844 0-39.614 16.706-39.614 37.24 0 20.53 17.77 37.238 39.613 37.238 21.842 0 39.612-16.707 39.612-37.24 0-20.532-17.77-37.238-39.612-37.238zm0 90.942c-31.63 0-57.36-24.092-57.36-53.705s25.73-53.703 57.36-53.703c31.626 0 57.357 24.09 57.357 53.704s-25.73 53.706-57.357 53.706zm0-110.236c-33.188 0-60.185 25.36-60.185 56.53s26.997 56.53 60.185 56.53c33.183 0 60.182-25.36 60.182-56.53s-27-56.53-60.182-56.53z"/></g></svg>