<svg width="90" height="130" viewBox="0 0 90 130" xmlns="http://www.w3.org/2000/svg"><title>Page 1</title><g fill="#93649C" fill-rule="evenodd"><path d="M50.55 9.593c-.964 0-2.2.316-2.2 1.28V32.5h-.045v.32c0 1.927-.682 3.488-2.512 3.488-1.65 0-2.42-1.27-2.674-2.93V10.873c0-.963-1.375-1.28-2.34-1.28-.962 0-2.57.317-2.57 1.28V32.82c0 1.927-.657 3.488-2.487 3.488s-2.547-1.56-2.547-3.488V10.872c0-.963-1.06-1.28-2.023-1.28-.963 0-2.232.317-2.232 1.28v35.931c0 5.78 4.686 10.466 10.466 10.466h2.79c5.78 0 10.466-4.687 10.466-10.467v-35.93c0-.964-1.13-1.28-2.093-1.28z"/><path d="M44.62 126.108a3.837 3.837 0 0 1-7.676 0V54.943a3.837 3.837 0 0 1 7.675 0v71.165zM78.868 126.108a3.837 3.837 0 0 1-7.674 0V54.943a3.837 3.837 0 0 1 7.674 0v71.165z"/><path d="M89.66 33.896c1.426 12.83-2.79 23.373-14.652 23.373-11.163 0-16.002-10.537-14.65-23.374 1.394-13.256 8.37-23.373 14.65-23.373 5.582 0 13.257 10.814 14.652 23.373zM8.48 126.108a3.837 3.837 0 0 1-7.674 0v-49.42a3.837 3.837 0 0 1 7.675 0v49.42z"/><path d="M13.063 53.955c0 18.372-2.07 19.535-7.85 19.535-5.78 0-5.058-.698-5.058-20.466C.155 31.157-.193 0 .155 0c2.442 0 12.908 28.14 12.908 53.955z"/><path d="M8.702 74.13c0-.9-.73-1.628-1.628-1.628h-4.65a1.628 1.628 0 0 0 0 3.256h4.65c.9 0 1.628-.73 1.628-1.628z"/></g></svg>